%TF.GenerationSoftware,KiCad,Pcbnew,9.0.5*%
%TF.CreationDate,2026-07-26T16:35:49+02:00*%
%TF.ProjectId,TP4056_CHARGING_MODULE,54503430-3536-45f4-9348-415247494e47,rev?*%
%TF.SameCoordinates,Original*%
%TF.FileFunction,Copper,L1,Top*%
%TF.FilePolarity,Positive*%
%FSLAX46Y46*%
G04 Gerber Fmt 4.6, Leading zero omitted, Abs format (unit mm)*
G04 Created by KiCad (PCBNEW 9.0.5) date 2026-07-26 16:35:49*
%MOMM*%
%LPD*%
G01*
G04 APERTURE LIST*
G04 Aperture macros list*
%AMRoundRect*
0 Rectangle with rounded corners*
0 $1 Rounding radius*
0 $2 $3 $4 $5 $6 $7 $8 $9 X,Y pos of 4 corners*
0 Add a 4 corners polygon primitive as box body*
4,1,4,$2,$3,$4,$5,$6,$7,$8,$9,$2,$3,0*
0 Add four circle primitives for the rounded corners*
1,1,$1+$1,$2,$3*
1,1,$1+$1,$4,$5*
1,1,$1+$1,$6,$7*
1,1,$1+$1,$8,$9*
0 Add four rect primitives between the rounded corners*
20,1,$1+$1,$2,$3,$4,$5,0*
20,1,$1+$1,$4,$5,$6,$7,0*
20,1,$1+$1,$6,$7,$8,$9,0*
20,1,$1+$1,$8,$9,$2,$3,0*%
G04 Aperture macros list end*
%TA.AperFunction,SMDPad,CuDef*%
%ADD10RoundRect,0.175000X0.175000X0.625000X-0.175000X0.625000X-0.175000X-0.625000X0.175000X-0.625000X0*%
%TD*%
%TA.AperFunction,SMDPad,CuDef*%
%ADD11RoundRect,0.200000X0.200000X0.600000X-0.200000X0.600000X-0.200000X-0.600000X0.200000X-0.600000X0*%
%TD*%
%TA.AperFunction,SMDPad,CuDef*%
%ADD12RoundRect,0.225000X0.225000X0.575000X-0.225000X0.575000X-0.225000X-0.575000X0.225000X-0.575000X0*%
%TD*%
%TA.AperFunction,HeatsinkPad*%
%ADD13O,1.000000X1.700000*%
%TD*%
%TA.AperFunction,SMDPad,CuDef*%
%ADD14RoundRect,0.250000X0.250000X0.475000X-0.250000X0.475000X-0.250000X-0.475000X0.250000X-0.475000X0*%
%TD*%
%TA.AperFunction,SMDPad,CuDef*%
%ADD15RoundRect,0.250000X-0.250000X-0.475000X0.250000X-0.475000X0.250000X0.475000X-0.250000X0.475000X0*%
%TD*%
%TA.AperFunction,SMDPad,CuDef*%
%ADD16R,1.100000X0.400000*%
%TD*%
%TA.AperFunction,ComponentPad*%
%ADD17RoundRect,0.250001X-0.899999X-0.899999X0.899999X-0.899999X0.899999X0.899999X-0.899999X0.899999X0*%
%TD*%
%TA.AperFunction,HeatsinkPad*%
%ADD18C,0.500000*%
%TD*%
%TA.AperFunction,HeatsinkPad*%
%ADD19R,2.410000X3.300000*%
%TD*%
%TA.AperFunction,SMDPad,CuDef*%
%ADD20RoundRect,0.150000X-0.825000X-0.150000X0.825000X-0.150000X0.825000X0.150000X-0.825000X0.150000X0*%
%TD*%
%TA.AperFunction,SMDPad,CuDef*%
%ADD21RoundRect,0.237500X0.237500X-0.250000X0.237500X0.250000X-0.237500X0.250000X-0.237500X-0.250000X0*%
%TD*%
%TA.AperFunction,SMDPad,CuDef*%
%ADD22RoundRect,0.150000X-0.512500X-0.150000X0.512500X-0.150000X0.512500X0.150000X-0.512500X0.150000X0*%
%TD*%
%TA.AperFunction,SMDPad,CuDef*%
%ADD23RoundRect,0.218750X-0.256250X0.218750X-0.256250X-0.218750X0.256250X-0.218750X0.256250X0.218750X0*%
%TD*%
%TA.AperFunction,SMDPad,CuDef*%
%ADD24RoundRect,0.237500X-0.250000X-0.237500X0.250000X-0.237500X0.250000X0.237500X-0.250000X0.237500X0*%
%TD*%
%TA.AperFunction,SMDPad,CuDef*%
%ADD25RoundRect,0.237500X-0.237500X0.250000X-0.237500X-0.250000X0.237500X-0.250000X0.237500X0.250000X0*%
%TD*%
%TA.AperFunction,ViaPad*%
%ADD26C,0.600000*%
%TD*%
%TA.AperFunction,Conductor*%
%ADD27C,1.000000*%
%TD*%
%TA.AperFunction,Conductor*%
%ADD28C,0.400000*%
%TD*%
%TA.AperFunction,Conductor*%
%ADD29C,0.600000*%
%TD*%
G04 APERTURE END LIST*
D10*
%TO.P,USB-C,A5,CC1*%
%TO.N,unconnected-(J1-CC1-PadA5)*%
X141330000Y-65505000D03*
D11*
%TO.P,USB-C,A9,VBUS*%
%TO.N,Net-(U1-CE)*%
X139310000Y-65505000D03*
D12*
%TO.P,USB-C,A12,GND*%
%TO.N,GND*%
X138080000Y-65505000D03*
D10*
%TO.P,USB-C,B5,CC2*%
%TO.N,unconnected-(J1-CC2-PadB5)*%
X140330000Y-65505000D03*
D11*
%TO.P,USB-C,B9,VBUS*%
%TO.N,Net-(U1-CE)*%
X142350000Y-65505000D03*
D12*
%TO.P,USB-C,B12,GND*%
%TO.N,GND*%
X143580000Y-65505000D03*
D13*
%TO.P,USB-C,S1,SHIELD*%
%TO.N,unconnected-(J1-SHIELD-PadS1)_2*%
X145150000Y-65325000D03*
%TO.N,unconnected-(J1-SHIELD-PadS1)*%
X145150000Y-61525000D03*
%TO.N,unconnected-(J1-SHIELD-PadS1)_3*%
X136510000Y-65325000D03*
%TO.N,unconnected-(J1-SHIELD-PadS1)_1*%
X136510000Y-61525000D03*
%TD*%
D14*
%TO.P,C1,2*%
%TO.N,GND*%
X131250000Y-69525000D03*
%TO.P,C1,1*%
%TO.N,Net-(U1-CE)*%
X133150000Y-69525000D03*
%TD*%
D15*
%TO.P,C3,2*%
%TO.N,Net-(J4-Pin_1)*%
X150100000Y-72525000D03*
%TO.P,C3,1*%
%TO.N,Net-(U2-VCC)*%
X148200000Y-72525000D03*
%TD*%
D16*
%TO.P,U2,1,D1*%
%TO.N,unconnected-(FS8205A1-D1-Pad1)*%
X142850000Y-75525000D03*
%TO.P,U2,2,S1*%
%TO.N,Net-(J4-Pin_1)*%
X142850000Y-76175000D03*
%TO.P,U2,3,S1*%
X142850000Y-76825000D03*
%TO.P,U2,4,G1*%
%TO.N,Net-(FS8205A1-G1)*%
X142850000Y-77475000D03*
%TO.P,U2,5,G2*%
%TO.N,Net-(FS8205A1-G2)*%
X147150000Y-77475000D03*
%TO.P,U2,6,S2*%
%TO.N,GND*%
X147150000Y-76825000D03*
%TO.P,U2,7,S2*%
X147150000Y-76175000D03*
%TO.P,U2,8,D2*%
%TO.N,unconnected-(FS8205A1-D2-Pad8)*%
X147150000Y-75525000D03*
%TD*%
D17*
%TO.P,J4,1,Pin_1*%
%TO.N,Net-(J4-Pin_1)*%
X143150000Y-83525000D03*
%TD*%
D18*
%TO.P,U1,9,EPAD*%
%TO.N,unconnected-(U1-EPAD-Pad9)_3*%
X141375000Y-71630000D03*
%TO.N,unconnected-(U1-EPAD-Pad9)_1*%
X141375000Y-70430000D03*
%TO.N,unconnected-(U1-EPAD-Pad9)_4*%
X141375000Y-69230000D03*
D19*
%TO.N,unconnected-(U1-EPAD-Pad9)_6*%
X140675000Y-70430000D03*
D18*
%TO.N,unconnected-(U1-EPAD-Pad9)*%
X139975000Y-71630000D03*
%TO.N,unconnected-(U1-EPAD-Pad9)_2*%
X139975000Y-70430000D03*
%TO.N,unconnected-(U1-EPAD-Pad9)_7*%
X139975000Y-69230000D03*
D20*
%TO.P,U1,8,CE*%
%TO.N,Net-(U1-CE)*%
X143150000Y-68525000D03*
%TO.P,U1,7,~{CHRG}*%
%TO.N,Net-(D1-A)*%
X143150000Y-69795000D03*
%TO.P,U1,6,~{STDBY}*%
%TO.N,Net-(D2-A)*%
X143150000Y-71065000D03*
%TO.P,U1,5,BAT*%
%TO.N,B+*%
X143150000Y-72335000D03*
%TO.P,U1,4,V_{CC}*%
%TO.N,Net-(U1-CE)*%
X138200000Y-72335000D03*
%TO.P,U1,3,GND*%
%TO.N,GND*%
X138200000Y-71065000D03*
%TO.P,U1,2,PROG*%
%TO.N,Net-(U1-PROG)*%
X138200000Y-69795000D03*
%TO.P,U1,1,TEMP*%
%TO.N,Net-(U1-TEMP)*%
X138200000Y-68525000D03*
%TD*%
D17*
%TO.P,J3,1,Pin_1*%
%TO.N,B+*%
X138150000Y-83525000D03*
%TD*%
%TO.P,J2,1,Pin_1*%
%TO.N,B+*%
X131150000Y-81525000D03*
%TD*%
D21*
%TO.P,R3,1*%
%TO.N,GND*%
X132150000Y-62350000D03*
%TO.P,R3,2*%
%TO.N,Net-(U1-TEMP)*%
X132150000Y-60525000D03*
%TD*%
D17*
%TO.P,J5,1,Pin_1*%
%TO.N,GND*%
X150150000Y-81525000D03*
%TD*%
D22*
%TO.P,U2,1,OD*%
%TO.N,Net-(FS8205A1-G1)*%
X135875000Y-75525000D03*
%TO.P,U2,2,CS*%
%TO.N,Net-(U2-CS)*%
X135875000Y-76475000D03*
%TO.P,U2,3,OC*%
%TO.N,Net-(FS8205A1-G2)*%
X135875000Y-77425000D03*
%TO.P,U2,4,TD*%
%TO.N,unconnected-(U2-TD-Pad4)*%
X138150000Y-77425000D03*
%TO.P,U2,5,VCC*%
%TO.N,Net-(U2-VCC)*%
X138150000Y-76475000D03*
%TO.P,U2,6,GND*%
%TO.N,GND*%
X138150000Y-75525000D03*
%TD*%
D23*
%TO.P,D2,1,K*%
%TO.N,Net-(D2-K)*%
X151150000Y-59950000D03*
%TO.P,D2,2,A*%
%TO.N,Net-(D2-A)*%
X151150000Y-61525000D03*
%TD*%
D21*
%TO.P,R1,1*%
%TO.N,Net-(U1-CE)*%
X148150000Y-65525000D03*
%TO.P,R1,2*%
%TO.N,Net-(D1-K)*%
X148150000Y-63700000D03*
%TD*%
D24*
%TO.P,R5,1*%
%TO.N,GND*%
X146325000Y-68525000D03*
%TO.P,R5,2*%
%TO.N,Net-(U2-CS)*%
X148150000Y-68525000D03*
%TD*%
D15*
%TO.P,C2,1*%
%TO.N,B+*%
X131250000Y-75525000D03*
%TO.P,C2,2*%
%TO.N,GND*%
X133150000Y-75525000D03*
%TD*%
D25*
%TO.P,R2,1*%
%TO.N,Net-(U1-CE)*%
X148150000Y-59700000D03*
%TO.P,R2,2*%
%TO.N,Net-(D2-K)*%
X148150000Y-61525000D03*
%TD*%
D24*
%TO.P,R6,1*%
%TO.N,B+*%
X150325000Y-68525000D03*
%TO.P,R6,2*%
%TO.N,Net-(U2-VCC)*%
X152150000Y-68525000D03*
%TD*%
D25*
%TO.P,R4,1*%
%TO.N,GND*%
X132150000Y-64700000D03*
%TO.P,R4,2*%
%TO.N,Net-(U1-PROG)*%
X132150000Y-66525000D03*
%TD*%
D23*
%TO.P,D1,1,K*%
%TO.N,Net-(D1-K)*%
X151150000Y-63950000D03*
%TO.P,D1,2,A*%
%TO.N,Net-(D1-A)*%
X151150000Y-65525000D03*
%TD*%
D26*
%TO.N,Net-(U1-CE)*%
X137922000Y-67597000D03*
X139310000Y-65505000D03*
%TO.N,Net-(FS8205A1-G1)*%
X135875000Y-75525000D03*
X139240500Y-76824997D03*
%TO.N,GND*%
X136332500Y-72962000D03*
%TO.N,Net-(U1-CE)*%
X133150000Y-69525000D03*
X142350000Y-65505000D03*
X145150000Y-63525000D03*
%TO.N,GND*%
X147150000Y-76774998D03*
X144053043Y-67440812D03*
X146325000Y-68525000D03*
X133150000Y-75525000D03*
X138200000Y-71065000D03*
%TO.N,Net-(U2-CS)*%
X146150000Y-71525000D03*
X137060500Y-75541382D03*
%TO.N,Net-(U2-VCC)*%
X138150000Y-76475000D03*
X144150000Y-73525000D03*
%TO.N,Net-(FS8205A1-G1)*%
X139240500Y-77525000D03*
X142850000Y-77525002D03*
%TO.N,Net-(FS8205A1-G2)*%
X147150000Y-77525002D03*
X140150000Y-78525000D03*
%TO.N,Net-(D1-K)*%
X148150000Y-63700000D03*
X150180000Y-64525000D03*
%TO.N,Net-(D1-A)*%
X143150000Y-69653000D03*
X151150000Y-65525000D03*
%TD*%
D27*
%TO.N,Net-(U1-CE)*%
X137830000Y-67505000D02*
X137922000Y-67597000D01*
X138018000Y-67597000D02*
X137922000Y-67597000D01*
D28*
X135960000Y-72335000D02*
X133150000Y-69525000D01*
X138200000Y-72335000D02*
X135960000Y-72335000D01*
D29*
%TO.N,Net-(FS8205A1-G1)*%
X139240500Y-77525000D02*
X139240500Y-76824997D01*
D28*
%TO.N,GND*%
X135713000Y-72962000D02*
X133150000Y-75525000D01*
X136332500Y-72962000D02*
X135713000Y-72962000D01*
X138150000Y-74779500D02*
X136332500Y-72962000D01*
X138150000Y-75525000D02*
X138150000Y-74779500D01*
X147150000Y-76525000D02*
X147150000Y-76774998D01*
X147150000Y-76525000D02*
X147150000Y-76175000D01*
X147150000Y-76825000D02*
X147150000Y-76525000D01*
D29*
X143580000Y-66967769D02*
X144053043Y-67440812D01*
X143580000Y-65505000D02*
X143580000Y-66967769D01*
D27*
%TO.N,Net-(U1-CE)*%
X139310000Y-66305000D02*
X138018000Y-67597000D01*
D29*
%TO.N,GND*%
X146150000Y-68525000D02*
X146325000Y-68525000D01*
%TO.N,Net-(U1-TEMP)*%
X133150000Y-64370390D02*
X137189000Y-68409390D01*
%TO.N,Net-(U2-CS)*%
X137060500Y-75951999D02*
X137060500Y-75541382D01*
X136537499Y-76475000D02*
X137060500Y-75951999D01*
X135875000Y-76475000D02*
X136537499Y-76475000D01*
%TO.N,Net-(U2-VCC)*%
X147200000Y-73525000D02*
X144150000Y-73525000D01*
X148200000Y-72525000D02*
X147200000Y-73525000D01*
%TO.N,Net-(FS8205A1-G2)*%
X136975000Y-78525000D02*
X140150000Y-78525000D01*
X135875000Y-77425000D02*
X136975000Y-78525000D01*
%TO.N,Net-(U2-CS)*%
X148150000Y-69525000D02*
X146150000Y-71525000D01*
X148150000Y-68525000D02*
X148150000Y-69525000D01*
%TO.N,B+*%
X146515000Y-72335000D02*
X143150000Y-72335000D01*
X150325000Y-68525000D02*
X146515000Y-72335000D01*
D27*
%TO.N,Net-(U1-CE)*%
X146125000Y-63525000D02*
X145150000Y-63525000D01*
X147022000Y-64422000D02*
X146125000Y-63525000D01*
D29*
%TO.N,Net-(D1-K)*%
X150755000Y-63950000D02*
X150180000Y-64525000D01*
X151150000Y-63950000D02*
X150755000Y-63950000D01*
%TO.N,Net-(U1-PROG)*%
X135420000Y-69795000D02*
X138200000Y-69795000D01*
X132150000Y-66525000D02*
X135420000Y-69795000D01*
%TO.N,Net-(U1-TEMP)*%
X133150000Y-61525000D02*
X133150000Y-64370390D01*
X132150000Y-60525000D02*
X133150000Y-61525000D01*
%TO.N,Net-(U2-VCC)*%
X152150000Y-68575000D02*
X148200000Y-72525000D01*
X152150000Y-68525000D02*
X152150000Y-68575000D01*
D27*
%TO.N,Net-(J4-Pin_1)*%
X150100000Y-73250000D02*
X150100000Y-72525000D01*
X148825000Y-74525000D02*
X150100000Y-73250000D01*
X146052000Y-74525000D02*
X148825000Y-74525000D01*
X144052000Y-76525000D02*
X146052000Y-74525000D01*
X144101000Y-76574000D02*
X144052000Y-76525000D01*
X144101000Y-82574000D02*
X144101000Y-76574000D01*
X143150000Y-83525000D02*
X144101000Y-82574000D01*
X144052000Y-76525000D02*
X142850000Y-76525000D01*
%TO.N,B+*%
X131150000Y-81525000D02*
X131150000Y-75625000D01*
X131150000Y-75625000D02*
X131250000Y-75525000D01*
X141150000Y-80525000D02*
X141150000Y-74335000D01*
X141150000Y-74335000D02*
X143150000Y-72335000D01*
X138150000Y-83525000D02*
X141150000Y-80525000D01*
X138150000Y-83525000D02*
X133150000Y-83525000D01*
X133150000Y-83525000D02*
X131150000Y-81525000D01*
%TO.N,Net-(U1-CE)*%
X147022000Y-64422000D02*
X148125000Y-65525000D01*
X147022000Y-60828000D02*
X147022000Y-64422000D01*
X148150000Y-59700000D02*
X147022000Y-60828000D01*
%TO.N,Net-(D2-K)*%
X149725000Y-59950000D02*
X148150000Y-61525000D01*
X151150000Y-59950000D02*
X149725000Y-59950000D01*
%TO.N,Net-(D1-A)*%
X143150000Y-69795000D02*
X143150000Y-69653000D01*
%TO.N,Net-(D2-A)*%
X143959414Y-71065000D02*
X143150000Y-71065000D01*
X144753000Y-70271414D02*
X143959414Y-71065000D01*
X148590084Y-66803000D02*
X145998586Y-66803000D01*
X149253000Y-66140084D02*
X148590084Y-66803000D01*
X144753000Y-68048586D02*
X144753000Y-70271414D01*
X149253000Y-63422000D02*
X149253000Y-66140084D01*
X151150000Y-61525000D02*
X149253000Y-63422000D01*
X145998586Y-66803000D02*
X144753000Y-68048586D01*
%TO.N,Net-(U1-CE)*%
X142350000Y-67725000D02*
X143150000Y-68525000D01*
X142350000Y-65505000D02*
X142350000Y-67725000D01*
D29*
%TO.N,GND*%
X143150000Y-63025000D02*
X143580000Y-63455000D01*
X138080000Y-65505000D02*
X138080000Y-63095000D01*
X138150000Y-63025000D02*
X143150000Y-63025000D01*
X138080000Y-63095000D02*
X138150000Y-63025000D01*
X143580000Y-63455000D02*
X143580000Y-65505000D01*
D27*
%TO.N,Net-(U1-CE)*%
X139310000Y-66305000D02*
X139310000Y-65505000D01*
%TD*%
%TA.AperFunction,Conductor*%
%TO.N,GND*%
G36*
X152739139Y-57045185D02*
G01*
X152784894Y-57097989D01*
X152796100Y-57149500D01*
X152796100Y-67469572D01*
X152776415Y-67536611D01*
X152723611Y-67582366D01*
X152654453Y-67592310D01*
X152633100Y-67587278D01*
X152550253Y-67559826D01*
X152550251Y-67559825D01*
X152449178Y-67549500D01*
X151850830Y-67549500D01*
X151850812Y-67549501D01*
X151749747Y-67559825D01*
X151585984Y-67614092D01*
X151585981Y-67614093D01*
X151439148Y-67704661D01*
X151325181Y-67818629D01*
X151263858Y-67852114D01*
X151194166Y-67847130D01*
X151149819Y-67818629D01*
X151035851Y-67704661D01*
X151035850Y-67704660D01*
X150889016Y-67614092D01*
X150725253Y-67559826D01*
X150725251Y-67559825D01*
X150624178Y-67549500D01*
X150025830Y-67549500D01*
X150025812Y-67549501D01*
X149924747Y-67559825D01*
X149760984Y-67614092D01*
X149760981Y-67614093D01*
X149614148Y-67704661D01*
X149492161Y-67826648D01*
X149401593Y-67973481D01*
X149401591Y-67973486D01*
X149355206Y-68113467D01*
X149315433Y-68170912D01*
X149250917Y-68197735D01*
X149182141Y-68185420D01*
X149130942Y-68137877D01*
X149119794Y-68113467D01*
X149117998Y-68108047D01*
X149073408Y-67973484D01*
X149008482Y-67868223D01*
X148990043Y-67800831D01*
X149010966Y-67734168D01*
X149059324Y-67693807D01*
X149058627Y-67692502D01*
X149063986Y-67689636D01*
X149063998Y-67689632D01*
X149227866Y-67580139D01*
X149367223Y-67440782D01*
X149367224Y-67440779D01*
X149374290Y-67433714D01*
X149374293Y-67433710D01*
X149890778Y-66917225D01*
X149890782Y-66917223D01*
X150030139Y-66777866D01*
X150139632Y-66613998D01*
X150215051Y-66431919D01*
X150219087Y-66411632D01*
X150227811Y-66367770D01*
X150260194Y-66305861D01*
X150320909Y-66271286D01*
X150390679Y-66275024D01*
X150437109Y-66304281D01*
X150444608Y-66311780D01*
X150444612Y-66311783D01*
X150587704Y-66400044D01*
X150587707Y-66400045D01*
X150587713Y-66400049D01*
X150747315Y-66452936D01*
X150845826Y-66463000D01*
X150845831Y-66463000D01*
X151454169Y-66463000D01*
X151454174Y-66463000D01*
X151552685Y-66452936D01*
X151712287Y-66400049D01*
X151855391Y-66311781D01*
X151974281Y-66192891D01*
X152062549Y-66049787D01*
X152115436Y-65890185D01*
X152125500Y-65791674D01*
X152125500Y-65258326D01*
X152115436Y-65159815D01*
X152062549Y-65000213D01*
X152062545Y-65000207D01*
X152062544Y-65000204D01*
X151974283Y-64857112D01*
X151974280Y-64857108D01*
X151942353Y-64825181D01*
X151908868Y-64763858D01*
X151913852Y-64694166D01*
X151942353Y-64649819D01*
X151974281Y-64617891D01*
X152062549Y-64474787D01*
X152115436Y-64315185D01*
X152125500Y-64216674D01*
X152125500Y-63683326D01*
X152115436Y-63584815D01*
X152062549Y-63425213D01*
X152062545Y-63425207D01*
X152062544Y-63425204D01*
X151974283Y-63282112D01*
X151974280Y-63282108D01*
X151855391Y-63163219D01*
X151855387Y-63163216D01*
X151712295Y-63074955D01*
X151712289Y-63074952D01*
X151712287Y-63074951D01*
X151552685Y-63022064D01*
X151552683Y-63022063D01*
X151454181Y-63012000D01*
X151454174Y-63012000D01*
X151377282Y-63012000D01*
X151310243Y-62992315D01*
X151264488Y-62939511D01*
X151254544Y-62870353D01*
X151283569Y-62806797D01*
X151289601Y-62800319D01*
X151565419Y-62524500D01*
X151657981Y-62431937D01*
X151706664Y-62401912D01*
X151712287Y-62400049D01*
X151855391Y-62311781D01*
X151974281Y-62192891D01*
X152062549Y-62049787D01*
X152115436Y-61890185D01*
X152125500Y-61791674D01*
X152125500Y-61761434D01*
X152127883Y-61737242D01*
X152150500Y-61623542D01*
X152150500Y-61426459D01*
X152150499Y-61426456D01*
X152127883Y-61312755D01*
X152125500Y-61288564D01*
X152125500Y-61258331D01*
X152125499Y-61258318D01*
X152115436Y-61159816D01*
X152115436Y-61159815D01*
X152062549Y-61000213D01*
X152062545Y-61000207D01*
X152062544Y-61000204D01*
X151974283Y-60857112D01*
X151974280Y-60857108D01*
X151942353Y-60825181D01*
X151908868Y-60763858D01*
X151913852Y-60694166D01*
X151942353Y-60649819D01*
X151974281Y-60617891D01*
X152062549Y-60474787D01*
X152115436Y-60315185D01*
X152125500Y-60216674D01*
X152125500Y-60186434D01*
X152127883Y-60162242D01*
X152150500Y-60048543D01*
X152150500Y-59851456D01*
X152127883Y-59737756D01*
X152125500Y-59713564D01*
X152125500Y-59683331D01*
X152125499Y-59683318D01*
X152115436Y-59584816D01*
X152099592Y-59537001D01*
X152062549Y-59425213D01*
X152062545Y-59425207D01*
X152062544Y-59425204D01*
X151974283Y-59282112D01*
X151974280Y-59282108D01*
X151855391Y-59163219D01*
X151855387Y-59163216D01*
X151712295Y-59074955D01*
X151712289Y-59074952D01*
X151712287Y-59074951D01*
X151552685Y-59022064D01*
X151552682Y-59022063D01*
X151552680Y-59022063D01*
X151552677Y-59022062D01*
X151532930Y-59020044D01*
X151498087Y-59011249D01*
X151495813Y-59010307D01*
X151441835Y-58987949D01*
X151441831Y-58987948D01*
X151441828Y-58987947D01*
X151248543Y-58949500D01*
X151248541Y-58949500D01*
X149823540Y-58949500D01*
X149626459Y-58949500D01*
X149626456Y-58949500D01*
X149433171Y-58987947D01*
X149433163Y-58987949D01*
X149379185Y-59010307D01*
X149379174Y-59010312D01*
X149375100Y-59012000D01*
X149251086Y-59063368D01*
X149185170Y-59107411D01*
X149178222Y-59110889D01*
X149151167Y-59115768D01*
X149124936Y-59123982D01*
X149117278Y-59121881D01*
X149109462Y-59123291D01*
X149084066Y-59112769D01*
X149057556Y-59105497D01*
X149051228Y-59099165D01*
X149044913Y-59096549D01*
X149036490Y-59084417D01*
X149017186Y-59065100D01*
X148970340Y-58989150D01*
X148848350Y-58867160D01*
X148701516Y-58776592D01*
X148537753Y-58722326D01*
X148537751Y-58722325D01*
X148436684Y-58712000D01*
X148436677Y-58712000D01*
X148323593Y-58712000D01*
X148299402Y-58709617D01*
X148276778Y-58705117D01*
X148248541Y-58699500D01*
X148248540Y-58699500D01*
X148051460Y-58699500D01*
X148000587Y-58709618D01*
X147976400Y-58712000D01*
X147863331Y-58712000D01*
X147863312Y-58712001D01*
X147762247Y-58722325D01*
X147598484Y-58776592D01*
X147598481Y-58776593D01*
X147451648Y-58867161D01*
X147329661Y-58989148D01*
X147239091Y-59135985D01*
X147218596Y-59197832D01*
X147188572Y-59246506D01*
X146751761Y-59683318D01*
X146384221Y-60050858D01*
X146384218Y-60050861D01*
X146314538Y-60120540D01*
X146244859Y-60190219D01*
X146135371Y-60354080D01*
X146135364Y-60354093D01*
X146106202Y-60424499D01*
X146106201Y-60424501D01*
X146091758Y-60459368D01*
X146047916Y-60513771D01*
X145981622Y-60535835D01*
X145913923Y-60518555D01*
X145889517Y-60499595D01*
X145787785Y-60397863D01*
X145787781Y-60397860D01*
X145623920Y-60288371D01*
X145623907Y-60288364D01*
X145441839Y-60212950D01*
X145441829Y-60212947D01*
X145248543Y-60174500D01*
X145248541Y-60174500D01*
X145051459Y-60174500D01*
X145051457Y-60174500D01*
X144858170Y-60212947D01*
X144858160Y-60212950D01*
X144676092Y-60288364D01*
X144676079Y-60288371D01*
X144512218Y-60397860D01*
X144512214Y-60397863D01*
X144372863Y-60537214D01*
X144372860Y-60537218D01*
X144263371Y-60701079D01*
X144263364Y-60701092D01*
X144187950Y-60883160D01*
X144187947Y-60883170D01*
X144149500Y-61076456D01*
X144149500Y-61076459D01*
X144149500Y-61973541D01*
X144149500Y-61973543D01*
X144149499Y-61973543D01*
X144187947Y-62166829D01*
X144187950Y-62166839D01*
X144263364Y-62348907D01*
X144263371Y-62348920D01*
X144372860Y-62512781D01*
X144372863Y-62512785D01*
X144472397Y-62612319D01*
X144505882Y-62673642D01*
X144500898Y-62743334D01*
X144472397Y-62787681D01*
X144372863Y-62887214D01*
X144372860Y-62887218D01*
X144263371Y-63051079D01*
X144263364Y-63051092D01*
X144187950Y-63233160D01*
X144187947Y-63233170D01*
X144149500Y-63426456D01*
X144149500Y-63426459D01*
X144149500Y-63623541D01*
X144149500Y-63623543D01*
X144149499Y-63623543D01*
X144187947Y-63816829D01*
X144187950Y-63816839D01*
X144263364Y-63998907D01*
X144263371Y-63998920D01*
X144358631Y-64141486D01*
X144379509Y-64208164D01*
X144361024Y-64275544D01*
X144309046Y-64322234D01*
X144240076Y-64333410D01*
X144190432Y-64315915D01*
X144113492Y-64268457D01*
X144113481Y-64268452D01*
X143952606Y-64215144D01*
X143853322Y-64205000D01*
X143830000Y-64205000D01*
X143830000Y-66804999D01*
X143853308Y-66804999D01*
X143853322Y-66804998D01*
X143952607Y-66794855D01*
X144113481Y-66741547D01*
X144113492Y-66741542D01*
X144257728Y-66652575D01*
X144257732Y-66652572D01*
X144377571Y-66532733D01*
X144384562Y-66521400D01*
X144436509Y-66474674D01*
X144505472Y-66463451D01*
X144558993Y-66483393D01*
X144639742Y-66537348D01*
X144684547Y-66590960D01*
X144693254Y-66660285D01*
X144663099Y-66723313D01*
X144658532Y-66728131D01*
X144150815Y-67235850D01*
X144115220Y-67271445D01*
X144115218Y-67271447D01*
X144076085Y-67310580D01*
X143975859Y-67410805D01*
X143866371Y-67574666D01*
X143866365Y-67574678D01*
X143863640Y-67581257D01*
X143819796Y-67635659D01*
X143753501Y-67657720D01*
X143685802Y-67640438D01*
X143661400Y-67621480D01*
X143386819Y-67346899D01*
X143353334Y-67285576D01*
X143350500Y-67259218D01*
X143350500Y-65406456D01*
X143332383Y-65315379D01*
X143330000Y-65291187D01*
X143330000Y-64204999D01*
X143306693Y-64205000D01*
X143306674Y-64205001D01*
X143207391Y-64215144D01*
X143046523Y-64268449D01*
X143046521Y-64268450D01*
X143014220Y-64288373D01*
X142946827Y-64306811D01*
X142884977Y-64288949D01*
X142839608Y-64261523D01*
X142839607Y-64261522D01*
X142839606Y-64261522D01*
X142677196Y-64210914D01*
X142677194Y-64210913D01*
X142677192Y-64210913D01*
X142627778Y-64206423D01*
X142606616Y-64204500D01*
X142093384Y-64204500D01*
X142022804Y-64210914D01*
X142004297Y-64216681D01*
X141862485Y-64260870D01*
X141792625Y-64262020D01*
X141788706Y-64260869D01*
X141627664Y-64210687D01*
X141627662Y-64210686D01*
X141627657Y-64210685D01*
X141559594Y-64204500D01*
X141100406Y-64204500D01*
X141032343Y-64210685D01*
X141032341Y-64210685D01*
X141032338Y-64210686D01*
X140868570Y-64261719D01*
X140867720Y-64258991D01*
X140811639Y-64266722D01*
X140791695Y-64260866D01*
X140791430Y-64261719D01*
X140627661Y-64210686D01*
X140627659Y-64210685D01*
X140627657Y-64210685D01*
X140559594Y-64204500D01*
X140100406Y-64204500D01*
X140032343Y-64210685D01*
X140032339Y-64210686D01*
X140032335Y-64210687D01*
X139871294Y-64260869D01*
X139801434Y-64262020D01*
X139797515Y-64260870D01*
X139731973Y-64240447D01*
X139637196Y-64210914D01*
X139566616Y-64204500D01*
X139053384Y-64204500D01*
X139034145Y-64206248D01*
X138982807Y-64210913D01*
X138820393Y-64261522D01*
X138775022Y-64288950D01*
X138707467Y-64306785D01*
X138645777Y-64288371D01*
X138613490Y-64268456D01*
X138613481Y-64268452D01*
X138452606Y-64215144D01*
X138353322Y-64205000D01*
X138330000Y-64205000D01*
X138330000Y-65291187D01*
X138327617Y-65315378D01*
X138309752Y-65405191D01*
X138277367Y-65467102D01*
X138216651Y-65501676D01*
X138188135Y-65505000D01*
X137954000Y-65505000D01*
X137886961Y-65485315D01*
X137841206Y-65432511D01*
X137830000Y-65381000D01*
X137830000Y-64204999D01*
X137806693Y-64205000D01*
X137806674Y-64205001D01*
X137707392Y-64215144D01*
X137546518Y-64268452D01*
X137546509Y-64268456D01*
X137427007Y-64342166D01*
X137359615Y-64360606D01*
X137292951Y-64339683D01*
X137274230Y-64324308D01*
X137147785Y-64197863D01*
X137147781Y-64197860D01*
X136983920Y-64088371D01*
X136983907Y-64088364D01*
X136801839Y-64012950D01*
X136801829Y-64012947D01*
X136608543Y-63974500D01*
X136608541Y-63974500D01*
X136411459Y-63974500D01*
X136411457Y-63974500D01*
X136218170Y-64012947D01*
X136218160Y-64012950D01*
X136036092Y-64088364D01*
X136036079Y-64088371D01*
X135872218Y-64197860D01*
X135872214Y-64197863D01*
X135732863Y-64337214D01*
X135732860Y-64337218D01*
X135623371Y-64501079D01*
X135623364Y-64501092D01*
X135547950Y-64683160D01*
X135547947Y-64683170D01*
X135509500Y-64876456D01*
X135509500Y-65298450D01*
X135489815Y-65365489D01*
X135437011Y-65411244D01*
X135367853Y-65421188D01*
X135304297Y-65392163D01*
X135297819Y-65386131D01*
X133986819Y-64075131D01*
X133953334Y-64013808D01*
X133950500Y-63987450D01*
X133950500Y-61973543D01*
X135509499Y-61973543D01*
X135547947Y-62166829D01*
X135547950Y-62166839D01*
X135623364Y-62348907D01*
X135623371Y-62348920D01*
X135732860Y-62512781D01*
X135732863Y-62512785D01*
X135872214Y-62652136D01*
X135872218Y-62652139D01*
X136036079Y-62761628D01*
X136036092Y-62761635D01*
X136218160Y-62837049D01*
X136218165Y-62837051D01*
X136218169Y-62837051D01*
X136218170Y-62837052D01*
X136411456Y-62875500D01*
X136411459Y-62875500D01*
X136608543Y-62875500D01*
X136738582Y-62849632D01*
X136801835Y-62837051D01*
X136983914Y-62761632D01*
X137147782Y-62652139D01*
X137287139Y-62512782D01*
X137396632Y-62348914D01*
X137472051Y-62166835D01*
X137495334Y-62049784D01*
X137510500Y-61973543D01*
X137510500Y-61076456D01*
X137472052Y-60883170D01*
X137472051Y-60883169D01*
X137472051Y-60883165D01*
X137461258Y-60857108D01*
X137396635Y-60701092D01*
X137396628Y-60701079D01*
X137287139Y-60537218D01*
X137287136Y-60537214D01*
X137147785Y-60397863D01*
X137147781Y-60397860D01*
X136983920Y-60288371D01*
X136983907Y-60288364D01*
X136801839Y-60212950D01*
X136801829Y-60212947D01*
X136608543Y-60174500D01*
X136608541Y-60174500D01*
X136411459Y-60174500D01*
X136411457Y-60174500D01*
X136218170Y-60212947D01*
X136218160Y-60212950D01*
X136036092Y-60288364D01*
X136036079Y-60288371D01*
X135872218Y-60397860D01*
X135872214Y-60397863D01*
X135732863Y-60537214D01*
X135732860Y-60537218D01*
X135623371Y-60701079D01*
X135623364Y-60701092D01*
X135547950Y-60883160D01*
X135547947Y-60883170D01*
X135509500Y-61076456D01*
X135509500Y-61076459D01*
X135509500Y-61973541D01*
X135509500Y-61973543D01*
X135509499Y-61973543D01*
X133950500Y-61973543D01*
X133950500Y-61446157D01*
X133946582Y-61426459D01*
X133946582Y-61426458D01*
X133919739Y-61291510D01*
X133919738Y-61291503D01*
X133859394Y-61145821D01*
X133821439Y-61089018D01*
X133771789Y-61014711D01*
X133771786Y-61014707D01*
X133161818Y-60404739D01*
X133128333Y-60343416D01*
X133125499Y-60317058D01*
X133125499Y-60225830D01*
X133125498Y-60225813D01*
X133115174Y-60124747D01*
X133060908Y-59960984D01*
X132970340Y-59814150D01*
X132848350Y-59692160D01*
X132701516Y-59601592D01*
X132537753Y-59547326D01*
X132537751Y-59547325D01*
X132436678Y-59537000D01*
X131863330Y-59537000D01*
X131863312Y-59537001D01*
X131762247Y-59547325D01*
X131598484Y-59601592D01*
X131598481Y-59601593D01*
X131451648Y-59692161D01*
X131329661Y-59814148D01*
X131239093Y-59960981D01*
X131239092Y-59960984D01*
X131184826Y-60124747D01*
X131184826Y-60124748D01*
X131184825Y-60124748D01*
X131174500Y-60225815D01*
X131174500Y-60824169D01*
X131174501Y-60824187D01*
X131184825Y-60925252D01*
X131239092Y-61089015D01*
X131239093Y-61089018D01*
X131329661Y-61235851D01*
X131443982Y-61350172D01*
X131477467Y-61411495D01*
X131472483Y-61481187D01*
X131443983Y-61525534D01*
X131330052Y-61639465D01*
X131239551Y-61786188D01*
X131239546Y-61786199D01*
X131185319Y-61949847D01*
X131175000Y-62050845D01*
X131175000Y-62100000D01*
X132026000Y-62100000D01*
X132093039Y-62119685D01*
X132138794Y-62172489D01*
X132150000Y-62224000D01*
X132150000Y-62350000D01*
X132225500Y-62350000D01*
X132292539Y-62369685D01*
X132338294Y-62422489D01*
X132349500Y-62474000D01*
X132349500Y-64449236D01*
X132369903Y-64551809D01*
X132363676Y-64621401D01*
X132320813Y-64676578D01*
X132254923Y-64699822D01*
X132248286Y-64700000D01*
X132150000Y-64700000D01*
X132150000Y-64826000D01*
X132130315Y-64893039D01*
X132077511Y-64938794D01*
X132026000Y-64950000D01*
X131175001Y-64950000D01*
X131175001Y-64999154D01*
X131185319Y-65100152D01*
X131239546Y-65263800D01*
X131239551Y-65263811D01*
X131330052Y-65410534D01*
X131330055Y-65410538D01*
X131443982Y-65524465D01*
X131477467Y-65585788D01*
X131472483Y-65655480D01*
X131443983Y-65699827D01*
X131329659Y-65814151D01*
X131239093Y-65960981D01*
X131239092Y-65960984D01*
X131184826Y-66124747D01*
X131184826Y-66124748D01*
X131184825Y-66124748D01*
X131174500Y-66225815D01*
X131174500Y-66824169D01*
X131174501Y-66824187D01*
X131184825Y-66925252D01*
X131219896Y-67031086D01*
X131239092Y-67089016D01*
X131329660Y-67235850D01*
X131451650Y-67357840D01*
X131598484Y-67448408D01*
X131762247Y-67502674D01*
X131863323Y-67513000D01*
X131954559Y-67512999D01*
X132021597Y-67532683D01*
X132042240Y-67549318D01*
X132646902Y-68153980D01*
X132680387Y-68215303D01*
X132675403Y-68284995D01*
X132633531Y-68340928D01*
X132598229Y-68359366D01*
X132580668Y-68365185D01*
X132580663Y-68365187D01*
X132431342Y-68457289D01*
X132307288Y-68581343D01*
X132307283Y-68581349D01*
X132305241Y-68584661D01*
X132303247Y-68586453D01*
X132302807Y-68587011D01*
X132302711Y-68586935D01*
X132253291Y-68631383D01*
X132184328Y-68642602D01*
X132120247Y-68614755D01*
X132094168Y-68584656D01*
X132092319Y-68581659D01*
X132092316Y-68581655D01*
X131968345Y-68457684D01*
X131819124Y-68365643D01*
X131819119Y-68365641D01*
X131652697Y-68310494D01*
X131652690Y-68310493D01*
X131549986Y-68300000D01*
X131500000Y-68300000D01*
X131500000Y-70749999D01*
X131549972Y-70749999D01*
X131549986Y-70749998D01*
X131652697Y-70739505D01*
X131819119Y-70684358D01*
X131819124Y-70684356D01*
X131968345Y-70592315D01*
X132092318Y-70468342D01*
X132094165Y-70465348D01*
X132095969Y-70463724D01*
X132096798Y-70462677D01*
X132096976Y-70462818D01*
X132146110Y-70418621D01*
X132215073Y-70407396D01*
X132279156Y-70435236D01*
X132305243Y-70465341D01*
X132307288Y-70468656D01*
X132431344Y-70592712D01*
X132580666Y-70684814D01*
X132747203Y-70739999D01*
X132849991Y-70750500D01*
X133333480Y-70750499D01*
X133400519Y-70770183D01*
X133421161Y-70786818D01*
X135513451Y-72879109D01*
X135513454Y-72879112D01*
X135550971Y-72904180D01*
X135628182Y-72955771D01*
X135628195Y-72955778D01*
X135755667Y-73008578D01*
X135755672Y-73008580D01*
X135755676Y-73008580D01*
X135755677Y-73008581D01*
X135891004Y-73035500D01*
X135891007Y-73035500D01*
X136994031Y-73035500D01*
X137057151Y-73052767D01*
X137114602Y-73086744D01*
X137156224Y-73098836D01*
X137272426Y-73132597D01*
X137272429Y-73132597D01*
X137272431Y-73132598D01*
X137309306Y-73135500D01*
X137309314Y-73135500D01*
X139090686Y-73135500D01*
X139090694Y-73135500D01*
X139127569Y-73132598D01*
X139127571Y-73132597D01*
X139127573Y-73132597D01*
X139169191Y-73120505D01*
X139285398Y-73086744D01*
X139426865Y-73003081D01*
X139543081Y-72886865D01*
X139626744Y-72745398D01*
X139626745Y-72745394D01*
X139626746Y-72745393D01*
X139648678Y-72669904D01*
X139686284Y-72611018D01*
X139749757Y-72581812D01*
X139767754Y-72580499D01*
X141190218Y-72580499D01*
X141257257Y-72600184D01*
X141303012Y-72652988D01*
X141312956Y-72722146D01*
X141283931Y-72785702D01*
X141277899Y-72792180D01*
X140512221Y-73557858D01*
X140512218Y-73557861D01*
X140466237Y-73603842D01*
X140372859Y-73697219D01*
X140263371Y-73861079D01*
X140263366Y-73861089D01*
X140210038Y-73989831D01*
X140210039Y-73989832D01*
X140193288Y-74030276D01*
X140193286Y-74030280D01*
X140187950Y-74043161D01*
X140187947Y-74043169D01*
X140149500Y-74236456D01*
X140149500Y-76335775D01*
X140129815Y-76402814D01*
X140077011Y-76448569D01*
X140007853Y-76458513D01*
X139944297Y-76429488D01*
X139922398Y-76404666D01*
X139862289Y-76314708D01*
X139862286Y-76314704D01*
X139750792Y-76203210D01*
X139750788Y-76203207D01*
X139619685Y-76115606D01*
X139619672Y-76115599D01*
X139474001Y-76055261D01*
X139473991Y-76055258D01*
X139374896Y-76035547D01*
X139312986Y-76003162D01*
X139278411Y-75942446D01*
X139280012Y-75879335D01*
X139309599Y-75777494D01*
X139309600Y-75777488D01*
X139309795Y-75775001D01*
X139309795Y-75775000D01*
X139044315Y-75775000D01*
X138981194Y-75757732D01*
X138959239Y-75744748D01*
X138922898Y-75723256D01*
X138922897Y-75723255D01*
X138922896Y-75723255D01*
X138922893Y-75723254D01*
X138765073Y-75677402D01*
X138765067Y-75677401D01*
X138728201Y-75674500D01*
X138728194Y-75674500D01*
X138274000Y-75674500D01*
X138206961Y-75654815D01*
X138161206Y-75602011D01*
X138150000Y-75550500D01*
X138150000Y-75525000D01*
X138024000Y-75525000D01*
X137956961Y-75505315D01*
X137911206Y-75452511D01*
X137900000Y-75401000D01*
X137900000Y-75275000D01*
X138400000Y-75275000D01*
X139309795Y-75275000D01*
X139309795Y-75274998D01*
X139309600Y-75272513D01*
X139263781Y-75114801D01*
X139180185Y-74973447D01*
X139180178Y-74973438D01*
X139064061Y-74857321D01*
X139064052Y-74857314D01*
X138922696Y-74773717D01*
X138922693Y-74773716D01*
X138764995Y-74727900D01*
X138764989Y-74727899D01*
X138728149Y-74725000D01*
X138400000Y-74725000D01*
X138400000Y-75275000D01*
X137900000Y-75275000D01*
X137900000Y-74725000D01*
X137571850Y-74725000D01*
X137535010Y-74727899D01*
X137373097Y-74774939D01*
X137303228Y-74774739D01*
X137297449Y-74772691D01*
X137293994Y-74771643D01*
X137139345Y-74740882D01*
X137139342Y-74740882D01*
X136981658Y-74740882D01*
X136981655Y-74740882D01*
X136827005Y-74771643D01*
X136826998Y-74771646D01*
X136777309Y-74792227D01*
X136707840Y-74799694D01*
X136666740Y-74784398D01*
X136647897Y-74773255D01*
X136490073Y-74727402D01*
X136490067Y-74727401D01*
X136453201Y-74724500D01*
X136453194Y-74724500D01*
X135296806Y-74724500D01*
X135296798Y-74724500D01*
X135259932Y-74727401D01*
X135259926Y-74727402D01*
X135102106Y-74773254D01*
X135102103Y-74773255D01*
X134960637Y-74856917D01*
X134960629Y-74856923D01*
X134844423Y-74973129D01*
X134844417Y-74973137D01*
X134760755Y-75114603D01*
X134760754Y-75114606D01*
X134714902Y-75272426D01*
X134714901Y-75272432D01*
X134712000Y-75309298D01*
X134712000Y-75740696D01*
X134714901Y-75777567D01*
X134714902Y-75777573D01*
X134760754Y-75935393D01*
X134760754Y-75935394D01*
X134760755Y-75935396D01*
X134760756Y-75935398D01*
X134761633Y-75936881D01*
X134761966Y-75938195D01*
X134763853Y-75942554D01*
X134763149Y-75942858D01*
X134778815Y-76004604D01*
X134763361Y-76057233D01*
X134763853Y-76057446D01*
X134762130Y-76061426D01*
X134761633Y-76063118D01*
X134761006Y-76064177D01*
X134760754Y-76064605D01*
X134760754Y-76064606D01*
X134714902Y-76222426D01*
X134714901Y-76222432D01*
X134712000Y-76259298D01*
X134712000Y-76690701D01*
X134714901Y-76727567D01*
X134714902Y-76727573D01*
X134760754Y-76885393D01*
X134760754Y-76885394D01*
X134760755Y-76885396D01*
X134760756Y-76885398D01*
X134761633Y-76886881D01*
X134761966Y-76888195D01*
X134763853Y-76892554D01*
X134763149Y-76892858D01*
X134778815Y-76954604D01*
X134763361Y-77007233D01*
X134763853Y-77007446D01*
X134762130Y-77011426D01*
X134761633Y-77013118D01*
X134761006Y-77014177D01*
X134760754Y-77014605D01*
X134760754Y-77014606D01*
X134714902Y-77172426D01*
X134714901Y-77172432D01*
X134712000Y-77209298D01*
X134712000Y-77640701D01*
X134714901Y-77677567D01*
X134714902Y-77677573D01*
X134760754Y-77835393D01*
X134760755Y-77835396D01*
X134844417Y-77976862D01*
X134844423Y-77976870D01*
X134960629Y-78093076D01*
X134960633Y-78093079D01*
X134960635Y-78093081D01*
X135102102Y-78176744D01*
X135143724Y-78188836D01*
X135259926Y-78222597D01*
X135259929Y-78222597D01*
X135259931Y-78222598D01*
X135296806Y-78225500D01*
X135492060Y-78225500D01*
X135559099Y-78245185D01*
X135579741Y-78261819D01*
X136464707Y-79146786D01*
X136464711Y-79146789D01*
X136595814Y-79234390D01*
X136595827Y-79234397D01*
X136741498Y-79294735D01*
X136741503Y-79294737D01*
X136896153Y-79325499D01*
X136896156Y-79325500D01*
X136896158Y-79325500D01*
X137053842Y-79325500D01*
X140025500Y-79325500D01*
X140092539Y-79345185D01*
X140138294Y-79397989D01*
X140149500Y-79449500D01*
X140149500Y-80059217D01*
X140129815Y-80126256D01*
X140113181Y-80146898D01*
X138421899Y-81838181D01*
X138360576Y-81871666D01*
X138334218Y-81874500D01*
X137199984Y-81874500D01*
X137097204Y-81885000D01*
X137097203Y-81885001D01*
X136930664Y-81940186D01*
X136930662Y-81940187D01*
X136781348Y-82032286D01*
X136781344Y-82032289D01*
X136657289Y-82156344D01*
X136657286Y-82156348D01*
X136565187Y-82305662D01*
X136565186Y-82305664D01*
X136541986Y-82375677D01*
X136520835Y-82439505D01*
X136481065Y-82496949D01*
X136416549Y-82523772D01*
X136403131Y-82524500D01*
X133615782Y-82524500D01*
X133548743Y-82504815D01*
X133528101Y-82488181D01*
X132836819Y-81796899D01*
X132803334Y-81735576D01*
X132800500Y-81709218D01*
X132800500Y-80574997D01*
X132800499Y-80574984D01*
X132789999Y-80472204D01*
X132789999Y-80472203D01*
X132734814Y-80305666D01*
X132642711Y-80156345D01*
X132518655Y-80032289D01*
X132518651Y-80032286D01*
X132369337Y-79940187D01*
X132369334Y-79940186D01*
X132235496Y-79895836D01*
X132178051Y-79856063D01*
X132151228Y-79791547D01*
X132150500Y-79778130D01*
X132150500Y-76610523D01*
X132170185Y-76543484D01*
X132222989Y-76497729D01*
X132292147Y-76487785D01*
X132355703Y-76516810D01*
X132362181Y-76522842D01*
X132431654Y-76592315D01*
X132580875Y-76684356D01*
X132580880Y-76684358D01*
X132747302Y-76739505D01*
X132747309Y-76739506D01*
X132850019Y-76749999D01*
X133400000Y-76749999D01*
X133449972Y-76749999D01*
X133449986Y-76749998D01*
X133552697Y-76739505D01*
X133719119Y-76684358D01*
X133719124Y-76684356D01*
X133868345Y-76592315D01*
X133992315Y-76468345D01*
X134084356Y-76319124D01*
X134084358Y-76319119D01*
X134139505Y-76152697D01*
X134139506Y-76152690D01*
X134149999Y-76049986D01*
X134150000Y-76049973D01*
X134150000Y-75775000D01*
X133400000Y-75775000D01*
X133400000Y-76749999D01*
X132850019Y-76749999D01*
X132899999Y-76749998D01*
X132900000Y-76749998D01*
X132900000Y-75275000D01*
X133400000Y-75275000D01*
X134149999Y-75275000D01*
X134149999Y-75000028D01*
X134149998Y-75000013D01*
X134139505Y-74897302D01*
X134084358Y-74730880D01*
X134084356Y-74730875D01*
X133992315Y-74581654D01*
X133868345Y-74457684D01*
X133719124Y-74365643D01*
X133719119Y-74365641D01*
X133552697Y-74310494D01*
X133552690Y-74310493D01*
X133449986Y-74300000D01*
X133400000Y-74300000D01*
X133400000Y-75275000D01*
X132900000Y-75275000D01*
X132900000Y-74300000D01*
X132899999Y-74299999D01*
X132850029Y-74300000D01*
X132850011Y-74300001D01*
X132747302Y-74310494D01*
X132580880Y-74365641D01*
X132580875Y-74365643D01*
X132431654Y-74457684D01*
X132307683Y-74581655D01*
X132307679Y-74581660D01*
X132305826Y-74584665D01*
X132304018Y-74586290D01*
X132303202Y-74587323D01*
X132303025Y-74587183D01*
X132253874Y-74631385D01*
X132184911Y-74642601D01*
X132120831Y-74614752D01*
X132094753Y-74584653D01*
X132094737Y-74584628D01*
X132092712Y-74581344D01*
X131968656Y-74457288D01*
X131819334Y-74365186D01*
X131652797Y-74310001D01*
X131652795Y-74310000D01*
X131550010Y-74299500D01*
X130949998Y-74299500D01*
X130949980Y-74299501D01*
X130847203Y-74310000D01*
X130847200Y-74310001D01*
X130680668Y-74365185D01*
X130680663Y-74365187D01*
X130531342Y-74457289D01*
X130407289Y-74581342D01*
X130315187Y-74730663D01*
X130315185Y-74730668D01*
X130300515Y-74774939D01*
X130260001Y-74897203D01*
X130260001Y-74897204D01*
X130260000Y-74897204D01*
X130249500Y-74999983D01*
X130249500Y-75159902D01*
X130248454Y-75165666D01*
X130249168Y-75168976D01*
X130243594Y-75192464D01*
X130241602Y-75203450D01*
X130240872Y-75205394D01*
X130223735Y-75246769D01*
X130187949Y-75333164D01*
X130184274Y-75351638D01*
X130182303Y-75361542D01*
X130182303Y-75361545D01*
X130149500Y-75526455D01*
X130149500Y-79778130D01*
X130129815Y-79845169D01*
X130077011Y-79890924D01*
X130064504Y-79895836D01*
X129930665Y-79940186D01*
X129930662Y-79940187D01*
X129781348Y-80032286D01*
X129781344Y-80032289D01*
X129657289Y-80156344D01*
X129657286Y-80156348D01*
X129565187Y-80305662D01*
X129565186Y-80305664D01*
X129510001Y-80472203D01*
X129510000Y-80472204D01*
X129499500Y-80574984D01*
X129499500Y-82475015D01*
X129510000Y-82577795D01*
X129510001Y-82577796D01*
X129565186Y-82744335D01*
X129565187Y-82744337D01*
X129657286Y-82893651D01*
X129657289Y-82893655D01*
X129781344Y-83017710D01*
X129781348Y-83017713D01*
X129930662Y-83109812D01*
X129930664Y-83109813D01*
X129930666Y-83109814D01*
X130097203Y-83164999D01*
X130199992Y-83175500D01*
X131334218Y-83175500D01*
X131401257Y-83195185D01*
X131421899Y-83211819D01*
X132369735Y-84159655D01*
X132369764Y-84159686D01*
X132512214Y-84302136D01*
X132512218Y-84302139D01*
X132676079Y-84411628D01*
X132676092Y-84411635D01*
X132804833Y-84464961D01*
X132847744Y-84482735D01*
X132858164Y-84487051D01*
X132954812Y-84506275D01*
X133003135Y-84515887D01*
X133051458Y-84525500D01*
X133051459Y-84525500D01*
X133051460Y-84525500D01*
X133248540Y-84525500D01*
X136403131Y-84525500D01*
X136470170Y-84545185D01*
X136515925Y-84597989D01*
X136520833Y-84610486D01*
X136549477Y-84696929D01*
X136565186Y-84744335D01*
X136565187Y-84744337D01*
X136657286Y-84893651D01*
X136657289Y-84893655D01*
X136781344Y-85017710D01*
X136781348Y-85017713D01*
X136930662Y-85109812D01*
X136930664Y-85109813D01*
X136930666Y-85109814D01*
X137097203Y-85164999D01*
X137199992Y-85175500D01*
X137199997Y-85175500D01*
X139100003Y-85175500D01*
X139100008Y-85175500D01*
X139202797Y-85164999D01*
X139369334Y-85109814D01*
X139518655Y-85017711D01*
X139642711Y-84893655D01*
X139734814Y-84744334D01*
X139789999Y-84577797D01*
X139800500Y-84475008D01*
X139800500Y-83340782D01*
X139820185Y-83273743D01*
X139836819Y-83253101D01*
X141927137Y-81162784D01*
X141927137Y-81162783D01*
X141927140Y-81162781D01*
X142036632Y-80998914D01*
X142112052Y-80816835D01*
X142150500Y-80623540D01*
X142150500Y-80426459D01*
X142150500Y-78252352D01*
X142170185Y-78185313D01*
X142222989Y-78139558D01*
X142292147Y-78129614D01*
X142343391Y-78149250D01*
X142470814Y-78234392D01*
X142470827Y-78234399D01*
X142616498Y-78294737D01*
X142616503Y-78294739D01*
X142747691Y-78320834D01*
X142771153Y-78325501D01*
X142771156Y-78325502D01*
X142771158Y-78325502D01*
X142928842Y-78325502D01*
X142952308Y-78320834D01*
X143021897Y-78327060D01*
X143077076Y-78369922D01*
X143100322Y-78435811D01*
X143100500Y-78442451D01*
X143100500Y-81750500D01*
X143080815Y-81817539D01*
X143028011Y-81863294D01*
X142976500Y-81874500D01*
X142199984Y-81874500D01*
X142097204Y-81885000D01*
X142097203Y-81885001D01*
X141930664Y-81940186D01*
X141930662Y-81940187D01*
X141781348Y-82032286D01*
X141781344Y-82032289D01*
X141657289Y-82156344D01*
X141657286Y-82156348D01*
X141565187Y-82305662D01*
X141565186Y-82305664D01*
X141510001Y-82472203D01*
X141510000Y-82472204D01*
X141499500Y-82574984D01*
X141499500Y-84475015D01*
X141510000Y-84577795D01*
X141510001Y-84577797D01*
X141537593Y-84661065D01*
X141565186Y-84744335D01*
X141565187Y-84744337D01*
X141657286Y-84893651D01*
X141657289Y-84893655D01*
X141781344Y-85017710D01*
X141781348Y-85017713D01*
X141930662Y-85109812D01*
X141930664Y-85109813D01*
X141930666Y-85109814D01*
X142097203Y-85164999D01*
X142199992Y-85175500D01*
X142199997Y-85175500D01*
X144100003Y-85175500D01*
X144100008Y-85175500D01*
X144202797Y-85164999D01*
X144369334Y-85109814D01*
X144518655Y-85017711D01*
X144642711Y-84893655D01*
X144734814Y-84744334D01*
X144789999Y-84577797D01*
X144800500Y-84475008D01*
X144800500Y-83340782D01*
X144820185Y-83273744D01*
X144836820Y-83253101D01*
X144878136Y-83211785D01*
X144878139Y-83211782D01*
X144987632Y-83047914D01*
X145063051Y-82865835D01*
X145087219Y-82744335D01*
X145101500Y-82672543D01*
X145101500Y-80575014D01*
X148500000Y-80575014D01*
X148500000Y-81275000D01*
X149630384Y-81275000D01*
X149614185Y-81303058D01*
X149575000Y-81449300D01*
X149575000Y-81600700D01*
X149614185Y-81746942D01*
X149630384Y-81775000D01*
X148500000Y-81775000D01*
X148500000Y-82474985D01*
X148510493Y-82577689D01*
X148510494Y-82577696D01*
X148565641Y-82744118D01*
X148565643Y-82744123D01*
X148657684Y-82893344D01*
X148781655Y-83017315D01*
X148930876Y-83109356D01*
X148930881Y-83109358D01*
X149097303Y-83164505D01*
X149097310Y-83164506D01*
X149200014Y-83174999D01*
X149200027Y-83175000D01*
X149900000Y-83175000D01*
X149900000Y-82044615D01*
X149928058Y-82060815D01*
X150074300Y-82100000D01*
X150225700Y-82100000D01*
X150371942Y-82060815D01*
X150400000Y-82044615D01*
X150400000Y-83175000D01*
X151099973Y-83175000D01*
X151099985Y-83174999D01*
X151202689Y-83164506D01*
X151202696Y-83164505D01*
X151369118Y-83109358D01*
X151369123Y-83109356D01*
X151518344Y-83017315D01*
X151642315Y-82893344D01*
X151734356Y-82744123D01*
X151734358Y-82744118D01*
X151789505Y-82577696D01*
X151789506Y-82577689D01*
X151799999Y-82474985D01*
X151800000Y-82474972D01*
X151800000Y-81775000D01*
X150669616Y-81775000D01*
X150685815Y-81746942D01*
X150725000Y-81600700D01*
X150725000Y-81449300D01*
X150685815Y-81303058D01*
X150669616Y-81275000D01*
X151800000Y-81275000D01*
X151800000Y-80575027D01*
X151799999Y-80575014D01*
X151789506Y-80472310D01*
X151789505Y-80472303D01*
X151734358Y-80305881D01*
X151734356Y-80305876D01*
X151642315Y-80156655D01*
X151518344Y-80032684D01*
X151369123Y-79940643D01*
X151369118Y-79940641D01*
X151202696Y-79885494D01*
X151202689Y-79885493D01*
X151099985Y-79875000D01*
X150400000Y-79875000D01*
X150400000Y-81005384D01*
X150371942Y-80989185D01*
X150225700Y-80950000D01*
X150074300Y-80950000D01*
X149928058Y-80989185D01*
X149900000Y-81005384D01*
X149900000Y-79875000D01*
X149200014Y-79875000D01*
X149097310Y-79885493D01*
X149097303Y-79885494D01*
X148930881Y-79940641D01*
X148930876Y-79940643D01*
X148781655Y-80032684D01*
X148657684Y-80156655D01*
X148565643Y-80305876D01*
X148565641Y-80305881D01*
X148510494Y-80472303D01*
X148510493Y-80472310D01*
X148500000Y-80575014D01*
X145101500Y-80575014D01*
X145101500Y-76941781D01*
X145121185Y-76874742D01*
X145137814Y-76854105D01*
X145414747Y-76577172D01*
X146100000Y-76577172D01*
X146100000Y-76625000D01*
X146647312Y-76625000D01*
X146673515Y-76632694D01*
X146700486Y-76636980D01*
X146706551Y-76642394D01*
X146714351Y-76644685D01*
X146732231Y-76665320D01*
X146752607Y-76683510D01*
X146754782Y-76691345D01*
X146760106Y-76697489D01*
X146763992Y-76724521D01*
X146771298Y-76750834D01*
X146768892Y-76758598D01*
X146770050Y-76766647D01*
X146758705Y-76791488D01*
X146750625Y-76817575D01*
X146743552Y-76824669D01*
X146741025Y-76830203D01*
X146727120Y-76843903D01*
X146721880Y-76848308D01*
X146639711Y-76903213D01*
X146550462Y-76992461D01*
X146546370Y-76995903D01*
X146519085Y-77007878D01*
X146492921Y-77022166D01*
X146484464Y-77023075D01*
X146482392Y-77023985D01*
X146479813Y-77023575D01*
X146466562Y-77025000D01*
X146100000Y-77025000D01*
X146100000Y-77072844D01*
X146106401Y-77132372D01*
X146106403Y-77132379D01*
X146156645Y-77267086D01*
X146156647Y-77267088D01*
X146242809Y-77382186D01*
X146242810Y-77382187D01*
X146299811Y-77424858D01*
X146341682Y-77480792D01*
X146349500Y-77524125D01*
X146349500Y-77603848D01*
X146380261Y-77758491D01*
X146380264Y-77758503D01*
X146440602Y-77904174D01*
X146440609Y-77904187D01*
X146528210Y-78035290D01*
X146528213Y-78035294D01*
X146639707Y-78146788D01*
X146639711Y-78146791D01*
X146770814Y-78234392D01*
X146770827Y-78234399D01*
X146916498Y-78294737D01*
X146916503Y-78294739D01*
X147047691Y-78320834D01*
X147071153Y-78325501D01*
X147071156Y-78325502D01*
X147071158Y-78325502D01*
X147228844Y-78325502D01*
X147228845Y-78325501D01*
X147383497Y-78294739D01*
X147529179Y-78234396D01*
X147660289Y-78146791D01*
X147771789Y-78035291D01*
X147859394Y-77904181D01*
X147919737Y-77758499D01*
X147950500Y-77603844D01*
X147950500Y-77524125D01*
X147970185Y-77457086D01*
X148000189Y-77424858D01*
X148057189Y-77382187D01*
X148057190Y-77382186D01*
X148143352Y-77267088D01*
X148143354Y-77267086D01*
X148193596Y-77132379D01*
X148193598Y-77132372D01*
X148199999Y-77072844D01*
X148200000Y-77072827D01*
X148200000Y-77025000D01*
X147833438Y-77025000D01*
X147808933Y-77017804D01*
X147783600Y-77014544D01*
X147772880Y-77007218D01*
X147766399Y-77005315D01*
X147753630Y-76995903D01*
X147749537Y-76992461D01*
X147660289Y-76903213D01*
X147578119Y-76848308D01*
X147572880Y-76843903D01*
X147557189Y-76820264D01*
X147538992Y-76798490D01*
X147538118Y-76791532D01*
X147534240Y-76785690D01*
X147533820Y-76757313D01*
X147530285Y-76729165D01*
X147533310Y-76722840D01*
X147533207Y-76715828D01*
X147548196Y-76691727D01*
X147560440Y-76666137D01*
X147566404Y-76662452D01*
X147570108Y-76656498D01*
X147595741Y-76644330D01*
X147619883Y-76629418D01*
X147630040Y-76628050D01*
X147633228Y-76626537D01*
X147637342Y-76627066D01*
X147652688Y-76625000D01*
X148200000Y-76625000D01*
X148200000Y-76577172D01*
X148199999Y-76577158D01*
X148193128Y-76513257D01*
X148193128Y-76486743D01*
X148199999Y-76422841D01*
X148200000Y-76422827D01*
X148200000Y-76375000D01*
X146102323Y-76375000D01*
X146107468Y-76494674D01*
X146106871Y-76513255D01*
X146100001Y-76577153D01*
X146100000Y-76577172D01*
X145414747Y-76577172D01*
X145980602Y-76011317D01*
X146041923Y-75977834D01*
X146068281Y-75975000D01*
X148200000Y-75975000D01*
X148200000Y-75927172D01*
X148199999Y-75927155D01*
X148193598Y-75867627D01*
X148193596Y-75867620D01*
X148143354Y-75732913D01*
X148143353Y-75732911D01*
X148136540Y-75723810D01*
X148112124Y-75658345D01*
X148126976Y-75590072D01*
X148176382Y-75540667D01*
X148235808Y-75525500D01*
X148923542Y-75525500D01*
X148947689Y-75520696D01*
X149020188Y-75506275D01*
X149116836Y-75487051D01*
X149179895Y-75460931D01*
X149298914Y-75411632D01*
X149462782Y-75302139D01*
X149602139Y-75162782D01*
X149602139Y-75162780D01*
X149612347Y-75152573D01*
X149612348Y-75152570D01*
X150877139Y-73887782D01*
X150963524Y-73758497D01*
X150986632Y-73723914D01*
X151042486Y-73589069D01*
X151062051Y-73541836D01*
X151100500Y-73348540D01*
X151100500Y-73151460D01*
X151100500Y-72426459D01*
X151100500Y-72416470D01*
X151100499Y-72416456D01*
X151100499Y-71999998D01*
X151100498Y-71999981D01*
X151089999Y-71897203D01*
X151089998Y-71897200D01*
X151034814Y-71730666D01*
X150942712Y-71581344D01*
X150818656Y-71457288D01*
X150693060Y-71379820D01*
X150646336Y-71327872D01*
X150635113Y-71258909D01*
X150662957Y-71194827D01*
X150670465Y-71186611D01*
X152320259Y-69536818D01*
X152381582Y-69503333D01*
X152407940Y-69500499D01*
X152449170Y-69500499D01*
X152449176Y-69500499D01*
X152550253Y-69490174D01*
X152633097Y-69462721D01*
X152702923Y-69460320D01*
X152762966Y-69496051D01*
X152794159Y-69558571D01*
X152796100Y-69580428D01*
X152796100Y-86753900D01*
X152776415Y-86820939D01*
X152723611Y-86866694D01*
X152672100Y-86877900D01*
X128774500Y-86877900D01*
X128707461Y-86858215D01*
X128661706Y-86805411D01*
X128650500Y-86753900D01*
X128650500Y-70049986D01*
X130250001Y-70049986D01*
X130260494Y-70152697D01*
X130315641Y-70319119D01*
X130315643Y-70319124D01*
X130407684Y-70468345D01*
X130531654Y-70592315D01*
X130680875Y-70684356D01*
X130680880Y-70684358D01*
X130847302Y-70739505D01*
X130847309Y-70739506D01*
X130950019Y-70749999D01*
X130999999Y-70749998D01*
X131000000Y-70749998D01*
X131000000Y-69775000D01*
X130250001Y-69775000D01*
X130250001Y-70049986D01*
X128650500Y-70049986D01*
X128650500Y-69000013D01*
X130250000Y-69000013D01*
X130250000Y-69275000D01*
X131000000Y-69275000D01*
X131000000Y-68300000D01*
X130999999Y-68299999D01*
X130950029Y-68300000D01*
X130950011Y-68300001D01*
X130847302Y-68310494D01*
X130680880Y-68365641D01*
X130680875Y-68365643D01*
X130531654Y-68457684D01*
X130407684Y-68581654D01*
X130315643Y-68730875D01*
X130315641Y-68730880D01*
X130260494Y-68897302D01*
X130260493Y-68897309D01*
X130250000Y-69000013D01*
X128650500Y-69000013D01*
X128650500Y-64400845D01*
X131175000Y-64400845D01*
X131175000Y-64450000D01*
X131900000Y-64450000D01*
X131900000Y-63712500D01*
X131863361Y-63712500D01*
X131863343Y-63712501D01*
X131762347Y-63722819D01*
X131598699Y-63777046D01*
X131598688Y-63777051D01*
X131451965Y-63867552D01*
X131451961Y-63867555D01*
X131330055Y-63989461D01*
X131330052Y-63989465D01*
X131239551Y-64136188D01*
X131239546Y-64136199D01*
X131185319Y-64299847D01*
X131175000Y-64400845D01*
X128650500Y-64400845D01*
X128650500Y-62649154D01*
X131175001Y-62649154D01*
X131185319Y-62750152D01*
X131239546Y-62913800D01*
X131239551Y-62913811D01*
X131330052Y-63060534D01*
X131330055Y-63060538D01*
X131451961Y-63182444D01*
X131451965Y-63182447D01*
X131598688Y-63272948D01*
X131598699Y-63272953D01*
X131762347Y-63327180D01*
X131863352Y-63337499D01*
X131900000Y-63337499D01*
X131900000Y-62600000D01*
X131175001Y-62600000D01*
X131175001Y-62649154D01*
X128650500Y-62649154D01*
X128650500Y-57149500D01*
X128670185Y-57082461D01*
X128722989Y-57036706D01*
X128774500Y-57025500D01*
X152672100Y-57025500D01*
X152739139Y-57045185D01*
G37*
%TD.AperFunction*%
%TA.AperFunction,Conductor*%
G36*
X136692834Y-70615185D02*
G01*
X136738589Y-70667989D01*
X136748533Y-70737147D01*
X136744871Y-70754095D01*
X136727900Y-70812505D01*
X136727899Y-70812511D01*
X136727704Y-70814998D01*
X136727705Y-70815000D01*
X138076000Y-70815000D01*
X138143039Y-70834685D01*
X138188794Y-70887489D01*
X138200000Y-70939000D01*
X138200000Y-71191000D01*
X138180315Y-71258039D01*
X138127511Y-71303794D01*
X138076000Y-71315000D01*
X136727705Y-71315000D01*
X136727704Y-71315001D01*
X136727899Y-71317488D01*
X136727900Y-71317494D01*
X136773923Y-71475905D01*
X136773724Y-71545775D01*
X136735782Y-71604445D01*
X136672143Y-71633288D01*
X136654847Y-71634500D01*
X136301519Y-71634500D01*
X136234480Y-71614815D01*
X136213838Y-71598181D01*
X135422838Y-70807181D01*
X135389353Y-70745858D01*
X135394337Y-70676166D01*
X135436209Y-70620233D01*
X135501673Y-70595816D01*
X135510519Y-70595500D01*
X136625795Y-70595500D01*
X136692834Y-70615185D01*
G37*
%TD.AperFunction*%
%TA.AperFunction,Conductor*%
G36*
X146518039Y-68544685D02*
G01*
X146563794Y-68597489D01*
X146575000Y-68649000D01*
X146575000Y-69499999D01*
X146624140Y-69499999D01*
X146624154Y-69499998D01*
X146725156Y-69489680D01*
X146731774Y-69488264D01*
X146732404Y-69491211D01*
X146788963Y-69489238D01*
X146849023Y-69524940D01*
X146880246Y-69587445D01*
X146872720Y-69656908D01*
X146845879Y-69697042D01*
X145938390Y-70604530D01*
X145908691Y-70620746D01*
X145879225Y-70637526D01*
X145878075Y-70637464D01*
X145877067Y-70638015D01*
X145843276Y-70635598D01*
X145809455Y-70633785D01*
X145808523Y-70633113D01*
X145807375Y-70633031D01*
X145780264Y-70612736D01*
X145752783Y-70592919D01*
X145752361Y-70591847D01*
X145751442Y-70591159D01*
X145739616Y-70559453D01*
X145727202Y-70527900D01*
X145727283Y-70526387D01*
X145727025Y-70525695D01*
X145729091Y-70492662D01*
X145742109Y-70427219D01*
X145753500Y-70369955D01*
X145753500Y-69604622D01*
X145773185Y-69537583D01*
X145825989Y-69491828D01*
X145895147Y-69481884D01*
X145916504Y-69486916D01*
X145924848Y-69489680D01*
X146025851Y-69499999D01*
X146074999Y-69499998D01*
X146075000Y-69499998D01*
X146075000Y-68649000D01*
X146094685Y-68581961D01*
X146147489Y-68536206D01*
X146199000Y-68525000D01*
X146451000Y-68525000D01*
X146518039Y-68544685D01*
G37*
%TD.AperFunction*%
%TD*%
M02*
