%TF.GenerationSoftware,KiCad,Pcbnew,9.0.5*%
%TF.CreationDate,2026-07-26T16:35:50+02:00*%
%TF.ProjectId,TP4056_CHARGING_MODULE,54503430-3536-45f4-9348-415247494e47,rev?*%
%TF.SameCoordinates,Original*%
%TF.FileFunction,Soldermask,Bot*%
%TF.FilePolarity,Negative*%
%FSLAX46Y46*%
G04 Gerber Fmt 4.6, Leading zero omitted, Abs format (unit mm)*
G04 Created by KiCad (PCBNEW 9.0.5) date 2026-07-26 16:35:50*
%MOMM*%
%LPD*%
G01*
G04 APERTURE LIST*
G04 APERTURE END LIST*
G36*
X139054848Y-82375964D02*
G01*
X139105040Y-82381787D01*
X139122189Y-82389359D01*
X139145670Y-82394030D01*
X139170807Y-82410826D01*
X139190695Y-82419608D01*
X139204278Y-82433191D01*
X139226776Y-82448224D01*
X139241808Y-82470721D01*
X139255391Y-82484304D01*
X139264171Y-82504189D01*
X139280970Y-82529330D01*
X139285640Y-82552811D01*
X139293212Y-82569959D01*
X139299036Y-82620163D01*
X139299999Y-82625002D01*
X139299999Y-82628458D01*
X139300000Y-82628467D01*
X139300000Y-84421532D01*
X139300000Y-84424999D01*
X139299034Y-84429851D01*
X139293212Y-84480040D01*
X139285641Y-84497185D01*
X139280970Y-84520670D01*
X139264170Y-84545812D01*
X139255391Y-84565695D01*
X139241810Y-84579275D01*
X139226776Y-84601776D01*
X139204275Y-84616810D01*
X139190695Y-84630391D01*
X139170812Y-84639170D01*
X139145670Y-84655970D01*
X139122187Y-84660640D01*
X139105040Y-84668212D01*
X139054836Y-84674036D01*
X139049998Y-84674999D01*
X139046541Y-84674999D01*
X139046533Y-84675000D01*
X137253467Y-84675000D01*
X137253466Y-84674999D01*
X137250001Y-84675000D01*
X137245149Y-84674035D01*
X137194959Y-84668212D01*
X137177812Y-84660640D01*
X137154330Y-84655970D01*
X137129189Y-84639171D01*
X137109304Y-84630391D01*
X137095721Y-84616808D01*
X137073224Y-84601776D01*
X137058191Y-84579278D01*
X137044608Y-84565695D01*
X137035826Y-84545807D01*
X137019030Y-84520670D01*
X137014360Y-84497191D01*
X137006787Y-84480040D01*
X137000963Y-84429836D01*
X137000001Y-84424998D01*
X137000000Y-84421540D01*
X137000000Y-84421532D01*
X137000000Y-82628467D01*
X137000000Y-82628466D01*
X137000000Y-82625001D01*
X137000964Y-82620151D01*
X137006787Y-82569959D01*
X137014359Y-82552808D01*
X137019030Y-82529330D01*
X137035825Y-82504193D01*
X137044608Y-82484304D01*
X137058193Y-82470718D01*
X137073224Y-82448224D01*
X137095718Y-82433193D01*
X137109304Y-82419608D01*
X137129193Y-82410825D01*
X137154330Y-82394030D01*
X137177807Y-82389360D01*
X137194959Y-82381787D01*
X137245165Y-82375963D01*
X137250002Y-82375001D01*
X137253458Y-82375000D01*
X137253467Y-82375000D01*
X139046533Y-82375000D01*
X139049999Y-82375000D01*
X139054848Y-82375964D01*
G37*
G36*
X144054848Y-82375964D02*
G01*
X144105040Y-82381787D01*
X144122189Y-82389359D01*
X144145670Y-82394030D01*
X144170807Y-82410826D01*
X144190695Y-82419608D01*
X144204278Y-82433191D01*
X144226776Y-82448224D01*
X144241808Y-82470721D01*
X144255391Y-82484304D01*
X144264171Y-82504189D01*
X144280970Y-82529330D01*
X144285640Y-82552811D01*
X144293212Y-82569959D01*
X144299036Y-82620163D01*
X144299999Y-82625002D01*
X144299999Y-82628458D01*
X144300000Y-82628467D01*
X144300000Y-84421532D01*
X144300000Y-84424999D01*
X144299034Y-84429851D01*
X144293212Y-84480040D01*
X144285641Y-84497185D01*
X144280970Y-84520670D01*
X144264170Y-84545812D01*
X144255391Y-84565695D01*
X144241810Y-84579275D01*
X144226776Y-84601776D01*
X144204275Y-84616810D01*
X144190695Y-84630391D01*
X144170812Y-84639170D01*
X144145670Y-84655970D01*
X144122187Y-84660640D01*
X144105040Y-84668212D01*
X144054836Y-84674036D01*
X144049998Y-84674999D01*
X144046541Y-84674999D01*
X144046533Y-84675000D01*
X142253467Y-84675000D01*
X142253466Y-84674999D01*
X142250001Y-84675000D01*
X142245149Y-84674035D01*
X142194959Y-84668212D01*
X142177812Y-84660640D01*
X142154330Y-84655970D01*
X142129189Y-84639171D01*
X142109304Y-84630391D01*
X142095721Y-84616808D01*
X142073224Y-84601776D01*
X142058191Y-84579278D01*
X142044608Y-84565695D01*
X142035826Y-84545807D01*
X142019030Y-84520670D01*
X142014360Y-84497191D01*
X142006787Y-84480040D01*
X142000963Y-84429836D01*
X142000001Y-84424998D01*
X142000000Y-84421540D01*
X142000000Y-84421532D01*
X142000000Y-82628467D01*
X142000000Y-82628466D01*
X142000000Y-82625001D01*
X142000964Y-82620151D01*
X142006787Y-82569959D01*
X142014359Y-82552808D01*
X142019030Y-82529330D01*
X142035825Y-82504193D01*
X142044608Y-82484304D01*
X142058193Y-82470718D01*
X142073224Y-82448224D01*
X142095718Y-82433193D01*
X142109304Y-82419608D01*
X142129193Y-82410825D01*
X142154330Y-82394030D01*
X142177807Y-82389360D01*
X142194959Y-82381787D01*
X142245165Y-82375963D01*
X142250002Y-82375001D01*
X142253458Y-82375000D01*
X142253467Y-82375000D01*
X144046533Y-82375000D01*
X144049999Y-82375000D01*
X144054848Y-82375964D01*
G37*
G36*
X132054848Y-80375964D02*
G01*
X132105040Y-80381787D01*
X132122189Y-80389359D01*
X132145670Y-80394030D01*
X132170807Y-80410826D01*
X132190695Y-80419608D01*
X132204278Y-80433191D01*
X132226776Y-80448224D01*
X132241808Y-80470721D01*
X132255391Y-80484304D01*
X132264171Y-80504189D01*
X132280970Y-80529330D01*
X132285640Y-80552811D01*
X132293212Y-80569959D01*
X132299036Y-80620163D01*
X132299999Y-80625002D01*
X132299999Y-80628458D01*
X132300000Y-80628467D01*
X132300000Y-82375000D01*
X132300000Y-82424999D01*
X132299034Y-82429851D01*
X132293212Y-82480040D01*
X132285641Y-82497185D01*
X132280970Y-82520670D01*
X132264170Y-82545812D01*
X132255391Y-82565695D01*
X132241810Y-82579275D01*
X132226776Y-82601776D01*
X132204275Y-82616810D01*
X132190695Y-82630391D01*
X132170812Y-82639170D01*
X132145670Y-82655970D01*
X132122187Y-82660640D01*
X132105040Y-82668212D01*
X132054836Y-82674036D01*
X132049998Y-82674999D01*
X132046541Y-82674999D01*
X132046533Y-82675000D01*
X130253467Y-82675000D01*
X130253466Y-82674999D01*
X130250001Y-82675000D01*
X130245149Y-82674035D01*
X130194959Y-82668212D01*
X130177812Y-82660640D01*
X130154330Y-82655970D01*
X130129189Y-82639171D01*
X130109304Y-82630391D01*
X130095721Y-82616808D01*
X130073224Y-82601776D01*
X130058191Y-82579278D01*
X130044608Y-82565695D01*
X130035826Y-82545807D01*
X130019030Y-82520670D01*
X130014360Y-82497191D01*
X130006787Y-82480040D01*
X130000963Y-82429836D01*
X130000001Y-82424998D01*
X130000000Y-82421540D01*
X130000000Y-82421532D01*
X130000000Y-80628467D01*
X130000000Y-80628466D01*
X130000000Y-80625001D01*
X130000964Y-80620151D01*
X130006787Y-80569959D01*
X130014359Y-80552808D01*
X130019030Y-80529330D01*
X130035825Y-80504193D01*
X130044608Y-80484304D01*
X130058193Y-80470718D01*
X130073224Y-80448224D01*
X130095718Y-80433193D01*
X130109304Y-80419608D01*
X130129193Y-80410825D01*
X130154330Y-80394030D01*
X130177807Y-80389360D01*
X130194959Y-80381787D01*
X130245165Y-80375963D01*
X130250002Y-80375001D01*
X130253458Y-80375000D01*
X130253467Y-80375000D01*
X132046533Y-80375000D01*
X132049999Y-80375000D01*
X132054848Y-80375964D01*
G37*
G36*
X151054848Y-80375964D02*
G01*
X151105040Y-80381787D01*
X151122189Y-80389359D01*
X151145670Y-80394030D01*
X151170807Y-80410826D01*
X151190695Y-80419608D01*
X151204278Y-80433191D01*
X151226776Y-80448224D01*
X151241808Y-80470721D01*
X151255391Y-80484304D01*
X151264171Y-80504189D01*
X151280970Y-80529330D01*
X151285640Y-80552811D01*
X151293212Y-80569959D01*
X151299036Y-80620163D01*
X151299999Y-80625002D01*
X151299999Y-80628458D01*
X151300000Y-80628467D01*
X151300000Y-82375000D01*
X151300000Y-82424999D01*
X151299034Y-82429851D01*
X151293212Y-82480040D01*
X151285641Y-82497185D01*
X151280970Y-82520670D01*
X151264170Y-82545812D01*
X151255391Y-82565695D01*
X151241810Y-82579275D01*
X151226776Y-82601776D01*
X151204275Y-82616810D01*
X151190695Y-82630391D01*
X151170812Y-82639170D01*
X151145670Y-82655970D01*
X151122187Y-82660640D01*
X151105040Y-82668212D01*
X151054836Y-82674036D01*
X151049998Y-82674999D01*
X151046541Y-82674999D01*
X151046533Y-82675000D01*
X149253467Y-82675000D01*
X149253466Y-82674999D01*
X149250001Y-82675000D01*
X149245149Y-82674035D01*
X149194959Y-82668212D01*
X149177812Y-82660640D01*
X149154330Y-82655970D01*
X149129189Y-82639171D01*
X149109304Y-82630391D01*
X149095721Y-82616808D01*
X149073224Y-82601776D01*
X149058191Y-82579278D01*
X149044608Y-82565695D01*
X149035826Y-82545807D01*
X149019030Y-82520670D01*
X149014360Y-82497191D01*
X149006787Y-82480040D01*
X149000963Y-82429836D01*
X149000001Y-82424998D01*
X149000000Y-82421540D01*
X149000000Y-82421532D01*
X149000000Y-80628467D01*
X149000000Y-80628466D01*
X149000000Y-80625001D01*
X149000964Y-80620151D01*
X149006787Y-80569959D01*
X149014359Y-80552808D01*
X149019030Y-80529330D01*
X149035825Y-80504193D01*
X149044608Y-80484304D01*
X149058193Y-80470718D01*
X149073224Y-80448224D01*
X149095718Y-80433193D01*
X149109304Y-80419608D01*
X149129193Y-80410825D01*
X149154330Y-80394030D01*
X149177807Y-80389360D01*
X149194959Y-80381787D01*
X149245165Y-80375963D01*
X149250002Y-80375001D01*
X149253458Y-80375000D01*
X149253467Y-80375000D01*
X151046533Y-80375000D01*
X151049999Y-80375000D01*
X151054848Y-80375964D01*
G37*
G36*
X136701342Y-64513060D02*
G01*
X136814381Y-64578323D01*
X136906677Y-64670619D01*
X136971940Y-64783658D01*
X137005722Y-64909737D01*
X137010000Y-64975000D01*
X137010000Y-65675000D01*
X137005722Y-65740263D01*
X136971940Y-65866342D01*
X136906677Y-65979381D01*
X136814381Y-66071677D01*
X136701342Y-66136940D01*
X136575263Y-66170722D01*
X136444737Y-66170722D01*
X136318658Y-66136940D01*
X136205619Y-66071677D01*
X136113323Y-65979381D01*
X136048060Y-65866342D01*
X136014278Y-65740263D01*
X136010000Y-65675000D01*
X136010000Y-64975000D01*
X136014278Y-64909737D01*
X136048060Y-64783658D01*
X136113323Y-64670619D01*
X136205619Y-64578323D01*
X136318658Y-64513060D01*
X136444737Y-64479278D01*
X136575263Y-64479278D01*
X136701342Y-64513060D01*
G37*
G36*
X145341342Y-64513060D02*
G01*
X145454381Y-64578323D01*
X145546677Y-64670619D01*
X145611940Y-64783658D01*
X145645722Y-64909737D01*
X145650000Y-64975000D01*
X145650000Y-65675000D01*
X145645722Y-65740263D01*
X145611940Y-65866342D01*
X145546677Y-65979381D01*
X145454381Y-66071677D01*
X145341342Y-66136940D01*
X145215263Y-66170722D01*
X145084737Y-66170722D01*
X144958658Y-66136940D01*
X144845619Y-66071677D01*
X144753323Y-65979381D01*
X144688060Y-65866342D01*
X144654278Y-65740263D01*
X144650000Y-65675000D01*
X144650000Y-64975000D01*
X144654278Y-64909737D01*
X144688060Y-64783658D01*
X144753323Y-64670619D01*
X144845619Y-64578323D01*
X144958658Y-64513060D01*
X145084737Y-64479278D01*
X145215263Y-64479278D01*
X145341342Y-64513060D01*
G37*
G36*
X136701342Y-60713060D02*
G01*
X136814381Y-60778323D01*
X136906677Y-60870619D01*
X136971940Y-60983658D01*
X137005722Y-61109737D01*
X137010000Y-61175000D01*
X137010000Y-61875000D01*
X137005722Y-61940263D01*
X136971940Y-62066342D01*
X136906677Y-62179381D01*
X136814381Y-62271677D01*
X136701342Y-62336940D01*
X136575263Y-62370722D01*
X136444737Y-62370722D01*
X136318658Y-62336940D01*
X136205619Y-62271677D01*
X136113323Y-62179381D01*
X136048060Y-62066342D01*
X136014278Y-61940263D01*
X136010000Y-61875000D01*
X136010000Y-61175000D01*
X136014278Y-61109737D01*
X136048060Y-60983658D01*
X136113323Y-60870619D01*
X136205619Y-60778323D01*
X136318658Y-60713060D01*
X136444737Y-60679278D01*
X136575263Y-60679278D01*
X136701342Y-60713060D01*
G37*
G36*
X145341342Y-60713060D02*
G01*
X145454381Y-60778323D01*
X145546677Y-60870619D01*
X145611940Y-60983658D01*
X145645722Y-61109737D01*
X145650000Y-61175000D01*
X145650000Y-61875000D01*
X145645722Y-61940263D01*
X145611940Y-62066342D01*
X145546677Y-62179381D01*
X145454381Y-62271677D01*
X145341342Y-62336940D01*
X145215263Y-62370722D01*
X145084737Y-62370722D01*
X144958658Y-62336940D01*
X144845619Y-62271677D01*
X144753323Y-62179381D01*
X144688060Y-62066342D01*
X144654278Y-61940263D01*
X144650000Y-61875000D01*
X144650000Y-61175000D01*
X144654278Y-61109737D01*
X144688060Y-60983658D01*
X144753323Y-60870619D01*
X144845619Y-60778323D01*
X144958658Y-60713060D01*
X145084737Y-60679278D01*
X145215263Y-60679278D01*
X145341342Y-60713060D01*
G37*
M02*
