M48
; DRILL file {KiCad 9.0.5} date 2026-07-26T16:36:39+0200
; FORMAT={-:-/ absolute / metric / decimal}
; #@! TF.CreationDate,2026-07-26T16:36:39+02:00
; #@! TF.GenerationSoftware,Kicad,Pcbnew,9.0.5
; #@! TF.FileFunction,Plated,1,4,PTH
FMAT,2
METRIC
; #@! TA.AperFunction,Plated,PTH,ComponentDrill
T1C0.200
; #@! TA.AperFunction,Plated,PTH,ViaDrill
T2C0.300
; #@! TA.AperFunction,Plated,PTH,ComponentDrill
T3C0.500
; #@! TA.AperFunction,Plated,PTH,ComponentDrill
T4C1.150
%
G90
G05
T1
X139.975Y-69.23
X139.975Y-70.43
X139.975Y-71.63
X141.375Y-69.23
X141.375Y-70.43
X141.375Y-71.63
T2
X133.15Y-69.525
X133.15Y-75.525
X135.875Y-75.525
X136.332Y-72.962
X137.06Y-75.541
X137.922Y-67.597
X138.15Y-76.475
X138.2Y-71.065
X139.24Y-76.825
X139.24Y-77.525
X139.31Y-65.505
X140.15Y-78.525
X142.35Y-65.505
X142.85Y-77.525
X143.15Y-69.653
X144.053Y-67.441
X144.15Y-73.525
X145.15Y-63.525
X146.15Y-71.525
X146.325Y-68.525
X147.15Y-76.775
X147.15Y-77.525
X148.15Y-63.7
X150.18Y-64.525
X151.15Y-65.525
T4
X131.15Y-81.525
X138.15Y-83.525
X143.15Y-83.525
X150.15Y-81.525
T3
G00X136.51Y-61.875
M15
G01X136.51Y-61.175
M16
G05
G00X136.51Y-65.675
M15
G01X136.51Y-64.975
M16
G05
G00X145.15Y-61.875
M15
G01X145.15Y-61.175
M16
G05
G00X145.15Y-65.675
M15
G01X145.15Y-64.975
M16
G05
M30
