%TF.GenerationSoftware,KiCad,Pcbnew,9.0.5*%
%TF.CreationDate,2026-07-26T16:35:50+02:00*%
%TF.ProjectId,TP4056_CHARGING_MODULE,54503430-3536-45f4-9348-415247494e47,rev?*%
%TF.SameCoordinates,Original*%
%TF.FileFunction,Copper,L4,Bot*%
%TF.FilePolarity,Positive*%
%FSLAX46Y46*%
G04 Gerber Fmt 4.6, Leading zero omitted, Abs format (unit mm)*
G04 Created by KiCad (PCBNEW 9.0.5) date 2026-07-26 16:35:50*
%MOMM*%
%LPD*%
G01*
G04 APERTURE LIST*
G04 Aperture macros list*
%AMRoundRect*
0 Rectangle with rounded corners*
0 $1 Rounding radius*
0 $2 $3 $4 $5 $6 $7 $8 $9 X,Y pos of 4 corners*
0 Add a 4 corners polygon primitive as box body*
4,1,4,$2,$3,$4,$5,$6,$7,$8,$9,$2,$3,0*
0 Add four circle primitives for the rounded corners*
1,1,$1+$1,$2,$3*
1,1,$1+$1,$4,$5*
1,1,$1+$1,$6,$7*
1,1,$1+$1,$8,$9*
0 Add four rect primitives between the rounded corners*
20,1,$1+$1,$2,$3,$4,$5,0*
20,1,$1+$1,$4,$5,$6,$7,0*
20,1,$1+$1,$6,$7,$8,$9,0*
20,1,$1+$1,$8,$9,$2,$3,0*%
G04 Aperture macros list end*
%TA.AperFunction,HeatsinkPad*%
%ADD10O,1.000000X1.700000*%
%TD*%
%TA.AperFunction,ComponentPad*%
%ADD11RoundRect,0.250001X-0.899999X-0.899999X0.899999X-0.899999X0.899999X0.899999X-0.899999X0.899999X0*%
%TD*%
%TA.AperFunction,HeatsinkPad*%
%ADD12C,0.500000*%
%TD*%
%TA.AperFunction,HeatsinkPad*%
%ADD13R,1.900000X2.900000*%
%TD*%
%TA.AperFunction,ViaPad*%
%ADD14C,0.600000*%
%TD*%
%TA.AperFunction,Conductor*%
%ADD15C,1.000000*%
%TD*%
%TA.AperFunction,Conductor*%
%ADD16C,0.600000*%
%TD*%
%TA.AperFunction,Conductor*%
%ADD17C,0.200000*%
%TD*%
G04 APERTURE END LIST*
D10*
%TO.P,USB-C,S1,SHIELD*%
%TO.N,unconnected-(J1-SHIELD-PadS1)_2*%
X145150000Y-65325000D03*
%TO.N,unconnected-(J1-SHIELD-PadS1)*%
X145150000Y-61525000D03*
%TO.N,unconnected-(J1-SHIELD-PadS1)_3*%
X136510000Y-65325000D03*
%TO.N,unconnected-(J1-SHIELD-PadS1)_1*%
X136510000Y-61525000D03*
%TD*%
D11*
%TO.P,J4,1,Pin_1*%
%TO.N,Net-(J4-Pin_1)*%
X143150000Y-83525000D03*
%TD*%
D12*
%TO.P,U1,9,EPAD*%
%TO.N,unconnected-(U1-EPAD-Pad9)_3*%
X141375000Y-71630000D03*
%TO.N,unconnected-(U1-EPAD-Pad9)_1*%
X141375000Y-70430000D03*
%TO.N,unconnected-(U1-EPAD-Pad9)_4*%
X141375000Y-69230000D03*
D13*
%TO.N,unconnected-(U1-EPAD-Pad9)_5*%
X140675000Y-70430000D03*
D12*
%TO.N,unconnected-(U1-EPAD-Pad9)*%
X139975000Y-71630000D03*
%TO.N,unconnected-(U1-EPAD-Pad9)_2*%
X139975000Y-70430000D03*
%TO.N,unconnected-(U1-EPAD-Pad9)_7*%
X139975000Y-69230000D03*
%TD*%
D11*
%TO.P,J3,1,Pin_1*%
%TO.N,B+*%
X138150000Y-83525000D03*
%TD*%
%TO.P,J2,1,Pin_1*%
%TO.N,B+*%
X131150000Y-81525000D03*
%TD*%
%TO.P,J5,1,Pin_1*%
%TO.N,GND*%
X150150000Y-81525000D03*
%TD*%
D14*
%TO.N,Net-(U1-CE)*%
X137922000Y-67597000D03*
X139310000Y-65505000D03*
%TO.N,Net-(FS8205A1-G1)*%
X135875000Y-75525000D03*
X139240500Y-76824997D03*
%TO.N,GND*%
X136332500Y-72962000D03*
%TO.N,Net-(U1-CE)*%
X133150000Y-69525000D03*
X142350000Y-65505000D03*
X145150000Y-63525000D03*
%TO.N,GND*%
X147150000Y-76774998D03*
X144053043Y-67440812D03*
X146325000Y-68525000D03*
X133150000Y-75525000D03*
X138200000Y-71065000D03*
%TO.N,Net-(U2-CS)*%
X146150000Y-71525000D03*
X137060500Y-75541382D03*
%TO.N,Net-(U2-VCC)*%
X138150000Y-76475000D03*
X144150000Y-73525000D03*
%TO.N,Net-(FS8205A1-G1)*%
X139240500Y-77525000D03*
X142850000Y-77525002D03*
%TO.N,Net-(FS8205A1-G2)*%
X147150000Y-77525002D03*
X140150000Y-78525000D03*
%TO.N,Net-(D1-K)*%
X148150000Y-63700000D03*
X150180000Y-64525000D03*
%TO.N,Net-(D1-A)*%
X143150000Y-69653000D03*
X151150000Y-65525000D03*
%TD*%
D15*
%TO.N,Net-(U1-CE)*%
X135078000Y-67597000D02*
X133150000Y-69525000D01*
X137922000Y-67597000D02*
X135078000Y-67597000D01*
X142350000Y-65505000D02*
X139310000Y-65505000D01*
D16*
%TO.N,Net-(FS8205A1-G1)*%
X137875000Y-77525000D02*
X135875000Y-75525000D01*
X139240500Y-76824997D02*
X138540497Y-77525000D01*
X138540497Y-77525000D02*
X137875000Y-77525000D01*
%TO.N,GND*%
X145240812Y-67440812D02*
X146325000Y-68525000D01*
X144053043Y-67440812D02*
X145240812Y-67440812D01*
X138200000Y-71065000D02*
X136332500Y-72932500D01*
%TO.N,Net-(U2-CS)*%
X137060500Y-75541382D02*
X140076882Y-72525000D01*
X140076882Y-72525000D02*
X145150000Y-72525000D01*
X145150000Y-72525000D02*
X146150000Y-71525000D01*
%TO.N,Net-(U2-VCC)*%
X144150000Y-73525000D02*
X141100000Y-73525000D01*
X141100000Y-73525000D02*
X138150000Y-76475000D01*
%TO.N,Net-(FS8205A1-G1)*%
X142849998Y-77525000D02*
X142850000Y-77525002D01*
X139240500Y-77525000D02*
X142849998Y-77525000D01*
%TO.N,Net-(FS8205A1-G2)*%
X146150002Y-78525000D02*
X147150000Y-77525002D01*
X140150000Y-78525000D02*
X146150002Y-78525000D01*
D15*
%TO.N,Net-(U1-CE)*%
X142170000Y-65505000D02*
X142350000Y-65505000D01*
X144150000Y-63525000D02*
X142170000Y-65505000D01*
X145150000Y-63525000D02*
X144150000Y-63525000D01*
D16*
%TO.N,Net-(D1-K)*%
X148975000Y-64525000D02*
X148150000Y-63700000D01*
X150180000Y-64525000D02*
X148975000Y-64525000D01*
D15*
%TO.N,Net-(D1-A)*%
X147022000Y-69653000D02*
X151150000Y-65525000D01*
X143150000Y-69653000D02*
X147022000Y-69653000D01*
D17*
%TO.N,unconnected-(J1-SHIELD-PadS1)_3*%
X136510000Y-65325000D02*
X136705186Y-65129814D01*
X136510000Y-65325000D02*
X136510000Y-64665000D01*
%TD*%
%TA.AperFunction,Conductor*%
%TO.N,GND*%
G36*
X152739139Y-57045185D02*
G01*
X152784894Y-57097989D01*
X152796100Y-57149500D01*
X152796100Y-86753900D01*
X152776415Y-86820939D01*
X152723611Y-86866694D01*
X152672100Y-86877900D01*
X128774500Y-86877900D01*
X128707461Y-86858215D01*
X128661706Y-86805411D01*
X128650500Y-86753900D01*
X128650500Y-80574984D01*
X129499500Y-80574984D01*
X129499500Y-82475015D01*
X129510000Y-82577795D01*
X129510001Y-82577796D01*
X129565186Y-82744335D01*
X129565187Y-82744337D01*
X129657286Y-82893651D01*
X129657289Y-82893655D01*
X129781344Y-83017710D01*
X129781348Y-83017713D01*
X129930662Y-83109812D01*
X129930664Y-83109813D01*
X129930666Y-83109814D01*
X130097203Y-83164999D01*
X130199992Y-83175500D01*
X130199997Y-83175500D01*
X132100003Y-83175500D01*
X132100008Y-83175500D01*
X132202797Y-83164999D01*
X132369334Y-83109814D01*
X132518655Y-83017711D01*
X132642711Y-82893655D01*
X132734814Y-82744334D01*
X132789999Y-82577797D01*
X132790286Y-82574984D01*
X136499500Y-82574984D01*
X136499500Y-84475015D01*
X136510000Y-84577795D01*
X136510001Y-84577796D01*
X136565186Y-84744335D01*
X136565187Y-84744337D01*
X136657286Y-84893651D01*
X136657289Y-84893655D01*
X136781344Y-85017710D01*
X136781348Y-85017713D01*
X136930662Y-85109812D01*
X136930664Y-85109813D01*
X136930666Y-85109814D01*
X137097203Y-85164999D01*
X137199992Y-85175500D01*
X137199997Y-85175500D01*
X139100003Y-85175500D01*
X139100008Y-85175500D01*
X139202797Y-85164999D01*
X139369334Y-85109814D01*
X139518655Y-85017711D01*
X139642711Y-84893655D01*
X139734814Y-84744334D01*
X139789999Y-84577797D01*
X139800500Y-84475008D01*
X139800500Y-82574992D01*
X139800499Y-82574984D01*
X141499500Y-82574984D01*
X141499500Y-84475015D01*
X141510000Y-84577795D01*
X141510001Y-84577796D01*
X141565186Y-84744335D01*
X141565187Y-84744337D01*
X141657286Y-84893651D01*
X141657289Y-84893655D01*
X141781344Y-85017710D01*
X141781348Y-85017713D01*
X141930662Y-85109812D01*
X141930664Y-85109813D01*
X141930666Y-85109814D01*
X142097203Y-85164999D01*
X142199992Y-85175500D01*
X142199997Y-85175500D01*
X144100003Y-85175500D01*
X144100008Y-85175500D01*
X144202797Y-85164999D01*
X144369334Y-85109814D01*
X144518655Y-85017711D01*
X144642711Y-84893655D01*
X144734814Y-84744334D01*
X144789999Y-84577797D01*
X144800500Y-84475008D01*
X144800500Y-82574992D01*
X144789999Y-82472203D01*
X144734814Y-82305666D01*
X144642711Y-82156345D01*
X144518655Y-82032289D01*
X144518651Y-82032286D01*
X144369337Y-81940187D01*
X144369335Y-81940186D01*
X144286065Y-81912593D01*
X144202797Y-81885001D01*
X144202795Y-81885000D01*
X144100015Y-81874500D01*
X144100008Y-81874500D01*
X142199992Y-81874500D01*
X142199984Y-81874500D01*
X142097204Y-81885000D01*
X142097203Y-81885001D01*
X141930664Y-81940186D01*
X141930662Y-81940187D01*
X141781348Y-82032286D01*
X141781344Y-82032289D01*
X141657289Y-82156344D01*
X141657286Y-82156348D01*
X141565187Y-82305662D01*
X141565186Y-82305664D01*
X141510001Y-82472203D01*
X141510000Y-82472204D01*
X141499500Y-82574984D01*
X139800499Y-82574984D01*
X139789999Y-82472203D01*
X139734814Y-82305666D01*
X139642711Y-82156345D01*
X139518655Y-82032289D01*
X139518651Y-82032286D01*
X139369337Y-81940187D01*
X139369335Y-81940186D01*
X139286065Y-81912593D01*
X139202797Y-81885001D01*
X139202795Y-81885000D01*
X139100015Y-81874500D01*
X139100008Y-81874500D01*
X137199992Y-81874500D01*
X137199984Y-81874500D01*
X137097204Y-81885000D01*
X137097203Y-81885001D01*
X136930664Y-81940186D01*
X136930662Y-81940187D01*
X136781348Y-82032286D01*
X136781344Y-82032289D01*
X136657289Y-82156344D01*
X136657286Y-82156348D01*
X136565187Y-82305662D01*
X136565186Y-82305664D01*
X136510001Y-82472203D01*
X136510000Y-82472204D01*
X136499500Y-82574984D01*
X132790286Y-82574984D01*
X132800500Y-82475008D01*
X132800500Y-80575014D01*
X148500000Y-80575014D01*
X148500000Y-81275000D01*
X149630384Y-81275000D01*
X149614185Y-81303058D01*
X149575000Y-81449300D01*
X149575000Y-81600700D01*
X149614185Y-81746942D01*
X149630384Y-81775000D01*
X148500000Y-81775000D01*
X148500000Y-82474985D01*
X148510493Y-82577689D01*
X148510494Y-82577696D01*
X148565641Y-82744118D01*
X148565643Y-82744123D01*
X148657684Y-82893344D01*
X148781655Y-83017315D01*
X148930876Y-83109356D01*
X148930881Y-83109358D01*
X149097303Y-83164505D01*
X149097310Y-83164506D01*
X149200014Y-83174999D01*
X149200027Y-83175000D01*
X149900000Y-83175000D01*
X149900000Y-82044615D01*
X149928058Y-82060815D01*
X150074300Y-82100000D01*
X150225700Y-82100000D01*
X150371942Y-82060815D01*
X150400000Y-82044615D01*
X150400000Y-83175000D01*
X151099973Y-83175000D01*
X151099985Y-83174999D01*
X151202689Y-83164506D01*
X151202696Y-83164505D01*
X151369118Y-83109358D01*
X151369123Y-83109356D01*
X151518344Y-83017315D01*
X151642315Y-82893344D01*
X151734356Y-82744123D01*
X151734358Y-82744118D01*
X151789505Y-82577696D01*
X151789506Y-82577689D01*
X151799999Y-82474985D01*
X151800000Y-82474972D01*
X151800000Y-81775000D01*
X150669616Y-81775000D01*
X150685815Y-81746942D01*
X150725000Y-81600700D01*
X150725000Y-81449300D01*
X150685815Y-81303058D01*
X150669616Y-81275000D01*
X151800000Y-81275000D01*
X151800000Y-80575027D01*
X151799999Y-80575014D01*
X151789506Y-80472310D01*
X151789505Y-80472303D01*
X151734358Y-80305881D01*
X151734356Y-80305876D01*
X151642315Y-80156655D01*
X151518344Y-80032684D01*
X151369123Y-79940643D01*
X151369118Y-79940641D01*
X151202696Y-79885494D01*
X151202689Y-79885493D01*
X151099985Y-79875000D01*
X150400000Y-79875000D01*
X150400000Y-81005384D01*
X150371942Y-80989185D01*
X150225700Y-80950000D01*
X150074300Y-80950000D01*
X149928058Y-80989185D01*
X149900000Y-81005384D01*
X149900000Y-79875000D01*
X149200014Y-79875000D01*
X149097310Y-79885493D01*
X149097303Y-79885494D01*
X148930881Y-79940641D01*
X148930876Y-79940643D01*
X148781655Y-80032684D01*
X148657684Y-80156655D01*
X148565643Y-80305876D01*
X148565641Y-80305881D01*
X148510494Y-80472303D01*
X148510493Y-80472310D01*
X148500000Y-80575014D01*
X132800500Y-80575014D01*
X132800500Y-80574992D01*
X132789999Y-80472203D01*
X132734814Y-80305666D01*
X132642711Y-80156345D01*
X132518655Y-80032289D01*
X132518651Y-80032286D01*
X132369337Y-79940187D01*
X132369335Y-79940186D01*
X132286065Y-79912593D01*
X132202797Y-79885001D01*
X132202795Y-79885000D01*
X132100015Y-79874500D01*
X132100008Y-79874500D01*
X130199992Y-79874500D01*
X130199984Y-79874500D01*
X130097204Y-79885000D01*
X130097203Y-79885001D01*
X129930664Y-79940186D01*
X129930662Y-79940187D01*
X129781348Y-80032286D01*
X129781344Y-80032289D01*
X129657289Y-80156344D01*
X129657286Y-80156348D01*
X129565187Y-80305662D01*
X129565186Y-80305664D01*
X129510001Y-80472203D01*
X129510000Y-80472204D01*
X129499500Y-80574984D01*
X128650500Y-80574984D01*
X128650500Y-75446153D01*
X135074500Y-75446153D01*
X135074500Y-75603846D01*
X135105261Y-75758489D01*
X135105264Y-75758501D01*
X135165602Y-75904172D01*
X135165609Y-75904185D01*
X135253210Y-76035288D01*
X135253213Y-76035292D01*
X137253211Y-78035289D01*
X137364711Y-78146789D01*
X137364712Y-78146790D01*
X137495814Y-78234390D01*
X137495827Y-78234397D01*
X137641498Y-78294735D01*
X137641503Y-78294737D01*
X137796153Y-78325499D01*
X137796156Y-78325500D01*
X137796158Y-78325500D01*
X138619341Y-78325500D01*
X138619342Y-78325499D01*
X138773994Y-78294737D01*
X138843048Y-78266133D01*
X138912513Y-78258665D01*
X138937945Y-78266132D01*
X139007003Y-78294737D01*
X139161653Y-78325499D01*
X139161656Y-78325500D01*
X139161658Y-78325500D01*
X139225500Y-78325500D01*
X139292539Y-78345185D01*
X139338294Y-78397989D01*
X139349500Y-78449500D01*
X139349500Y-78603846D01*
X139380261Y-78758489D01*
X139380264Y-78758501D01*
X139440602Y-78904172D01*
X139440609Y-78904185D01*
X139528210Y-79035288D01*
X139528213Y-79035292D01*
X139639707Y-79146786D01*
X139639711Y-79146789D01*
X139770814Y-79234390D01*
X139770827Y-79234397D01*
X139916498Y-79294735D01*
X139916503Y-79294737D01*
X140071153Y-79325499D01*
X140071156Y-79325500D01*
X140071158Y-79325500D01*
X146228846Y-79325500D01*
X146228847Y-79325499D01*
X146383499Y-79294737D01*
X146529181Y-79234394D01*
X146660291Y-79146789D01*
X147771789Y-78035291D01*
X147771791Y-78035289D01*
X147859390Y-77904187D01*
X147859390Y-77904186D01*
X147859394Y-77904181D01*
X147919738Y-77758499D01*
X147950500Y-77603844D01*
X147950500Y-77446159D01*
X147919738Y-77291505D01*
X147859394Y-77145823D01*
X147859392Y-77145820D01*
X147859390Y-77145816D01*
X147771789Y-77014713D01*
X147771786Y-77014709D01*
X147660292Y-76903215D01*
X147660288Y-76903212D01*
X147529185Y-76815611D01*
X147529175Y-76815606D01*
X147383497Y-76755264D01*
X147383489Y-76755262D01*
X147228847Y-76724502D01*
X147228843Y-76724502D01*
X147071158Y-76724502D01*
X147071153Y-76724502D01*
X146916510Y-76755262D01*
X146916502Y-76755264D01*
X146770824Y-76815606D01*
X146770814Y-76815611D01*
X146639711Y-76903212D01*
X146639707Y-76903215D01*
X145854743Y-77688181D01*
X145793420Y-77721666D01*
X145767062Y-77724500D01*
X143774500Y-77724500D01*
X143707461Y-77704815D01*
X143661706Y-77652011D01*
X143650500Y-77600500D01*
X143650500Y-77446157D01*
X143650499Y-77446155D01*
X143619738Y-77291512D01*
X143619737Y-77291505D01*
X143619735Y-77291500D01*
X143559397Y-77145829D01*
X143559390Y-77145816D01*
X143471789Y-77014713D01*
X143471786Y-77014709D01*
X143360290Y-76903213D01*
X143360286Y-76903210D01*
X143229183Y-76815609D01*
X143229170Y-76815602D01*
X143083499Y-76755264D01*
X143083487Y-76755261D01*
X142928843Y-76724500D01*
X142928840Y-76724500D01*
X140138457Y-76724500D01*
X140071418Y-76704815D01*
X140025663Y-76652011D01*
X140016840Y-76624693D01*
X140010238Y-76591500D01*
X139949894Y-76445818D01*
X139949892Y-76445815D01*
X139949890Y-76445811D01*
X139862289Y-76314708D01*
X139862286Y-76314704D01*
X139750788Y-76203206D01*
X139748383Y-76201232D01*
X139747462Y-76199880D01*
X139746482Y-76198900D01*
X139746668Y-76198713D01*
X139709052Y-76143484D01*
X139707186Y-76073639D01*
X139739371Y-76017705D01*
X141395259Y-74361819D01*
X141456582Y-74328334D01*
X141482940Y-74325500D01*
X144228844Y-74325500D01*
X144228845Y-74325499D01*
X144383497Y-74294737D01*
X144529179Y-74234394D01*
X144660289Y-74146789D01*
X144771789Y-74035289D01*
X144859394Y-73904179D01*
X144919737Y-73758497D01*
X144950500Y-73603842D01*
X144950500Y-73449500D01*
X144970185Y-73382461D01*
X145022989Y-73336706D01*
X145074500Y-73325500D01*
X145228844Y-73325500D01*
X145228845Y-73325499D01*
X145383497Y-73294737D01*
X145529179Y-73234394D01*
X145660289Y-73146789D01*
X146771789Y-72035289D01*
X146859394Y-71904179D01*
X146919738Y-71758497D01*
X146950500Y-71603842D01*
X146950500Y-71446157D01*
X146919738Y-71291502D01*
X146859394Y-71145821D01*
X146859392Y-71145818D01*
X146859390Y-71145814D01*
X146771789Y-71014709D01*
X146660293Y-70903213D01*
X146660289Y-70903210D01*
X146626454Y-70880602D01*
X146581649Y-70826990D01*
X146572942Y-70757665D01*
X146603097Y-70694637D01*
X146662540Y-70657918D01*
X146695345Y-70653500D01*
X147120542Y-70653500D01*
X147151566Y-70647328D01*
X147217188Y-70634275D01*
X147313836Y-70615051D01*
X147367165Y-70592961D01*
X147495914Y-70539632D01*
X147659782Y-70430139D01*
X147799139Y-70290782D01*
X147799139Y-70290780D01*
X147809347Y-70280573D01*
X147809348Y-70280570D01*
X151927140Y-66162781D01*
X152036632Y-65998914D01*
X152112052Y-65816835D01*
X152150501Y-65623540D01*
X152150501Y-65426459D01*
X152150501Y-65426456D01*
X152150500Y-65426454D01*
X152124300Y-65294738D01*
X152112052Y-65233164D01*
X152036632Y-65051085D01*
X152036631Y-65051084D01*
X152036628Y-65051078D01*
X151927140Y-64887218D01*
X151927137Y-64887214D01*
X151787785Y-64747862D01*
X151787781Y-64747859D01*
X151623921Y-64638371D01*
X151623912Y-64638366D01*
X151441836Y-64562948D01*
X151441828Y-64562946D01*
X151248544Y-64524499D01*
X151248541Y-64524499D01*
X151097847Y-64524499D01*
X151030808Y-64504814D01*
X150985053Y-64452010D01*
X150976230Y-64424690D01*
X150958830Y-64337218D01*
X150949737Y-64291503D01*
X150949735Y-64291498D01*
X150889397Y-64145827D01*
X150889390Y-64145814D01*
X150801789Y-64014711D01*
X150801786Y-64014707D01*
X150690292Y-63903213D01*
X150690288Y-63903210D01*
X150559185Y-63815609D01*
X150559172Y-63815602D01*
X150413501Y-63755264D01*
X150413489Y-63755261D01*
X150258845Y-63724500D01*
X150258842Y-63724500D01*
X149357940Y-63724500D01*
X149290901Y-63704815D01*
X149270259Y-63688181D01*
X148660292Y-63078213D01*
X148660288Y-63078210D01*
X148529185Y-62990609D01*
X148529172Y-62990602D01*
X148383501Y-62930264D01*
X148383489Y-62930261D01*
X148228845Y-62899500D01*
X148228842Y-62899500D01*
X148071158Y-62899500D01*
X148071155Y-62899500D01*
X147916510Y-62930261D01*
X147916498Y-62930264D01*
X147770827Y-62990602D01*
X147770814Y-62990609D01*
X147639711Y-63078210D01*
X147639707Y-63078213D01*
X147528213Y-63189707D01*
X147528210Y-63189711D01*
X147440609Y-63320814D01*
X147440602Y-63320827D01*
X147380264Y-63466498D01*
X147380261Y-63466510D01*
X147349500Y-63621153D01*
X147349500Y-63778846D01*
X147380261Y-63933489D01*
X147380264Y-63933501D01*
X147440602Y-64079172D01*
X147440609Y-64079185D01*
X147528210Y-64210288D01*
X147528213Y-64210292D01*
X148353211Y-65035289D01*
X148436537Y-65118615D01*
X148464712Y-65146790D01*
X148595814Y-65234390D01*
X148595827Y-65234397D01*
X148741498Y-65294735D01*
X148741503Y-65294737D01*
X148741507Y-65294737D01*
X148741508Y-65294738D01*
X148896154Y-65325500D01*
X148896157Y-65325500D01*
X148896158Y-65325500D01*
X149635217Y-65325500D01*
X149702256Y-65345185D01*
X149748011Y-65397989D01*
X149757955Y-65467147D01*
X149728930Y-65530703D01*
X149722898Y-65537181D01*
X146643899Y-68616181D01*
X146582576Y-68649666D01*
X146556218Y-68652500D01*
X143051457Y-68652500D01*
X142858170Y-68690947D01*
X142858160Y-68690950D01*
X142676092Y-68766364D01*
X142676079Y-68766371D01*
X142512218Y-68875860D01*
X142512214Y-68875863D01*
X142372863Y-69015214D01*
X142352601Y-69045539D01*
X142298988Y-69090343D01*
X142229663Y-69099050D01*
X142166636Y-69068895D01*
X142129917Y-69009451D01*
X142125499Y-68976647D01*
X142125499Y-68932129D01*
X142125498Y-68932123D01*
X142125497Y-68932116D01*
X142119451Y-68875863D01*
X142119091Y-68872516D01*
X142068797Y-68737671D01*
X142068793Y-68737664D01*
X141982547Y-68622455D01*
X141982544Y-68622452D01*
X141867335Y-68536206D01*
X141867328Y-68536202D01*
X141732482Y-68485908D01*
X141732483Y-68485908D01*
X141672883Y-68479501D01*
X141672881Y-68479500D01*
X141672873Y-68479500D01*
X141448918Y-68479500D01*
X141301082Y-68479500D01*
X141301081Y-68479500D01*
X140048922Y-68479500D01*
X140048918Y-68479500D01*
X139901082Y-68479500D01*
X139901077Y-68479500D01*
X139677130Y-68479500D01*
X139677123Y-68479501D01*
X139617516Y-68485908D01*
X139482671Y-68536202D01*
X139482664Y-68536206D01*
X139367455Y-68622452D01*
X139367452Y-68622455D01*
X139281206Y-68737664D01*
X139281202Y-68737671D01*
X139230908Y-68872517D01*
X139229328Y-68887219D01*
X139224501Y-68932123D01*
X139224500Y-68932135D01*
X139224500Y-71927869D01*
X139224501Y-71927876D01*
X139230909Y-71987484D01*
X139271357Y-72095933D01*
X139276341Y-72165624D01*
X139242856Y-72226946D01*
X136563622Y-74906181D01*
X136502299Y-74939666D01*
X136432607Y-74934682D01*
X136388260Y-74906181D01*
X136385292Y-74903213D01*
X136385288Y-74903210D01*
X136254185Y-74815609D01*
X136254172Y-74815602D01*
X136108501Y-74755264D01*
X136108489Y-74755261D01*
X135953845Y-74724500D01*
X135953842Y-74724500D01*
X135796158Y-74724500D01*
X135796155Y-74724500D01*
X135641510Y-74755261D01*
X135641498Y-74755264D01*
X135495827Y-74815602D01*
X135495814Y-74815609D01*
X135364711Y-74903210D01*
X135364707Y-74903213D01*
X135253213Y-75014707D01*
X135253210Y-75014711D01*
X135165609Y-75145814D01*
X135165602Y-75145827D01*
X135105264Y-75291498D01*
X135105261Y-75291510D01*
X135074500Y-75446153D01*
X128650500Y-75446153D01*
X128650500Y-69426455D01*
X132149500Y-69426455D01*
X132149500Y-69623544D01*
X132187947Y-69816828D01*
X132187949Y-69816836D01*
X132263367Y-69998910D01*
X132263372Y-69998920D01*
X132372860Y-70162780D01*
X132372863Y-70162784D01*
X132512215Y-70302136D01*
X132512219Y-70302139D01*
X132676079Y-70411627D01*
X132676083Y-70411629D01*
X132676086Y-70411631D01*
X132858164Y-70487051D01*
X133051455Y-70525499D01*
X133051458Y-70525500D01*
X133051460Y-70525500D01*
X133248542Y-70525500D01*
X133248543Y-70525499D01*
X133441836Y-70487051D01*
X133623914Y-70411631D01*
X133787781Y-70302139D01*
X135456102Y-68633819D01*
X135517425Y-68600334D01*
X135543783Y-68597500D01*
X138020543Y-68597500D01*
X138150582Y-68571632D01*
X138213835Y-68559051D01*
X138395914Y-68483632D01*
X138559782Y-68374139D01*
X138699139Y-68234782D01*
X138808632Y-68070914D01*
X138884051Y-67888835D01*
X138922500Y-67695541D01*
X138922500Y-67498459D01*
X138922500Y-67498456D01*
X138884052Y-67305170D01*
X138884051Y-67305169D01*
X138884051Y-67305165D01*
X138884049Y-67305160D01*
X138808635Y-67123092D01*
X138808628Y-67123079D01*
X138699139Y-66959218D01*
X138699136Y-66959214D01*
X138559785Y-66819863D01*
X138559781Y-66819860D01*
X138395920Y-66710371D01*
X138395907Y-66710364D01*
X138213839Y-66634950D01*
X138213829Y-66634947D01*
X138020543Y-66596500D01*
X138020541Y-66596500D01*
X137302784Y-66596500D01*
X137235745Y-66576815D01*
X137189990Y-66524011D01*
X137180046Y-66454853D01*
X137209071Y-66391297D01*
X137215103Y-66384819D01*
X137287136Y-66312785D01*
X137287139Y-66312782D01*
X137396632Y-66148914D01*
X137472051Y-65966835D01*
X137505866Y-65796839D01*
X137510500Y-65773543D01*
X137510500Y-65603543D01*
X138309499Y-65603543D01*
X138347947Y-65796829D01*
X138347950Y-65796839D01*
X138423364Y-65978907D01*
X138423371Y-65978920D01*
X138532860Y-66142781D01*
X138532863Y-66142785D01*
X138672214Y-66282136D01*
X138672218Y-66282139D01*
X138836079Y-66391628D01*
X138836092Y-66391635D01*
X138982164Y-66452139D01*
X139018165Y-66467051D01*
X139018169Y-66467051D01*
X139018170Y-66467052D01*
X139211456Y-66505500D01*
X139211459Y-66505500D01*
X142448543Y-66505500D01*
X142578582Y-66479632D01*
X142641835Y-66467051D01*
X142823914Y-66391632D01*
X142987782Y-66282139D01*
X143127139Y-66142782D01*
X143236632Y-65978914D01*
X143303770Y-65816827D01*
X143314383Y-65791206D01*
X143315816Y-65791799D01*
X143342271Y-65747647D01*
X143937820Y-65152099D01*
X143999142Y-65118615D01*
X144068834Y-65123599D01*
X144124767Y-65165471D01*
X144149184Y-65230935D01*
X144149500Y-65239781D01*
X144149500Y-65773541D01*
X144149500Y-65773543D01*
X144149499Y-65773543D01*
X144187947Y-65966829D01*
X144187950Y-65966839D01*
X144263364Y-66148907D01*
X144263371Y-66148920D01*
X144372860Y-66312781D01*
X144372863Y-66312785D01*
X144512214Y-66452136D01*
X144512218Y-66452139D01*
X144676079Y-66561628D01*
X144676092Y-66561635D01*
X144858160Y-66637049D01*
X144858165Y-66637051D01*
X144858169Y-66637051D01*
X144858170Y-66637052D01*
X145051456Y-66675500D01*
X145051459Y-66675500D01*
X145248543Y-66675500D01*
X145378582Y-66649632D01*
X145441835Y-66637051D01*
X145623914Y-66561632D01*
X145787782Y-66452139D01*
X145927139Y-66312782D01*
X146036632Y-66148914D01*
X146112051Y-65966835D01*
X146145866Y-65796839D01*
X146150500Y-65773543D01*
X146150500Y-64876456D01*
X146112052Y-64683170D01*
X146112051Y-64683169D01*
X146112051Y-64683165D01*
X146085213Y-64618371D01*
X146036635Y-64501092D01*
X146036628Y-64501079D01*
X145927139Y-64337218D01*
X145923274Y-64332508D01*
X145924314Y-64331654D01*
X145894120Y-64276374D01*
X145899096Y-64206682D01*
X145923933Y-64168033D01*
X145923274Y-64167492D01*
X145927134Y-64162786D01*
X145927139Y-64162782D01*
X146036632Y-63998914D01*
X146112051Y-63816835D01*
X146130418Y-63724500D01*
X146150500Y-63623543D01*
X146150500Y-63426456D01*
X146112052Y-63233170D01*
X146112051Y-63233169D01*
X146112051Y-63233165D01*
X146094050Y-63189707D01*
X146036635Y-63051092D01*
X146036628Y-63051079D01*
X145927139Y-62887218D01*
X145927136Y-62887214D01*
X145827603Y-62787681D01*
X145794118Y-62726358D01*
X145799102Y-62656666D01*
X145827603Y-62612319D01*
X145927136Y-62512785D01*
X145927139Y-62512782D01*
X146036632Y-62348914D01*
X146112051Y-62166835D01*
X146150500Y-61973541D01*
X146150500Y-61076459D01*
X146150500Y-61076456D01*
X146112052Y-60883170D01*
X146112051Y-60883169D01*
X146112051Y-60883165D01*
X146112049Y-60883160D01*
X146036635Y-60701092D01*
X146036628Y-60701079D01*
X145927139Y-60537218D01*
X145927136Y-60537214D01*
X145787785Y-60397863D01*
X145787781Y-60397860D01*
X145623920Y-60288371D01*
X145623907Y-60288364D01*
X145441839Y-60212950D01*
X145441829Y-60212947D01*
X145248543Y-60174500D01*
X145248541Y-60174500D01*
X145051459Y-60174500D01*
X145051457Y-60174500D01*
X144858170Y-60212947D01*
X144858160Y-60212950D01*
X144676092Y-60288364D01*
X144676079Y-60288371D01*
X144512218Y-60397860D01*
X144512214Y-60397863D01*
X144372863Y-60537214D01*
X144372860Y-60537218D01*
X144263371Y-60701079D01*
X144263364Y-60701092D01*
X144187950Y-60883160D01*
X144187947Y-60883170D01*
X144149500Y-61076456D01*
X144149500Y-61076459D01*
X144149500Y-61973541D01*
X144149500Y-61973543D01*
X144149499Y-61973543D01*
X144187947Y-62166829D01*
X144187950Y-62166839D01*
X144265080Y-62353048D01*
X144268021Y-62380403D01*
X144274339Y-62407182D01*
X144271702Y-62414645D01*
X144272549Y-62422517D01*
X144260231Y-62447123D01*
X144251070Y-62473063D01*
X144244817Y-62477916D01*
X144241274Y-62484996D01*
X144217610Y-62499035D01*
X144195878Y-62515906D01*
X144186033Y-62517771D01*
X144181185Y-62520648D01*
X144161527Y-62524010D01*
X144156029Y-62524500D01*
X144051459Y-62524500D01*
X143973114Y-62540084D01*
X143966574Y-62541384D01*
X143966572Y-62541385D01*
X143858167Y-62562947D01*
X143858159Y-62562950D01*
X143804834Y-62585037D01*
X143804834Y-62585038D01*
X143759315Y-62603892D01*
X143676089Y-62638366D01*
X143676079Y-62638371D01*
X143512219Y-62747859D01*
X143472398Y-62787681D01*
X143372861Y-62887218D01*
X143372858Y-62887221D01*
X142571899Y-63688181D01*
X141791899Y-64468181D01*
X141730576Y-64501666D01*
X141704218Y-64504500D01*
X139211457Y-64504500D01*
X139018170Y-64542947D01*
X139018160Y-64542950D01*
X138836092Y-64618364D01*
X138836079Y-64618371D01*
X138672218Y-64727860D01*
X138672214Y-64727863D01*
X138532863Y-64867214D01*
X138532860Y-64867218D01*
X138423371Y-65031079D01*
X138423364Y-65031092D01*
X138347950Y-65213160D01*
X138347947Y-65213170D01*
X138309500Y-65406456D01*
X138309500Y-65406459D01*
X138309500Y-65603541D01*
X138309500Y-65603543D01*
X138309499Y-65603543D01*
X137510500Y-65603543D01*
X137510500Y-64876456D01*
X137472052Y-64683170D01*
X137472051Y-64683169D01*
X137472051Y-64683165D01*
X137445213Y-64618371D01*
X137396635Y-64501092D01*
X137396628Y-64501079D01*
X137287139Y-64337218D01*
X137287136Y-64337214D01*
X137147785Y-64197863D01*
X137147781Y-64197860D01*
X136983920Y-64088371D01*
X136983907Y-64088364D01*
X136801839Y-64012950D01*
X136801829Y-64012947D01*
X136608543Y-63974500D01*
X136608541Y-63974500D01*
X136411459Y-63974500D01*
X136411457Y-63974500D01*
X136218170Y-64012947D01*
X136218160Y-64012950D01*
X136036092Y-64088364D01*
X136036079Y-64088371D01*
X135872218Y-64197860D01*
X135872214Y-64197863D01*
X135732863Y-64337214D01*
X135732860Y-64337218D01*
X135623371Y-64501079D01*
X135623364Y-64501092D01*
X135547950Y-64683160D01*
X135547947Y-64683170D01*
X135509500Y-64876456D01*
X135509500Y-64876459D01*
X135509500Y-65773541D01*
X135509500Y-65773543D01*
X135509499Y-65773543D01*
X135547947Y-65966829D01*
X135547950Y-65966839D01*
X135623364Y-66148907D01*
X135623371Y-66148920D01*
X135732860Y-66312781D01*
X135732863Y-66312785D01*
X135804897Y-66384819D01*
X135838382Y-66446142D01*
X135833398Y-66515834D01*
X135791526Y-66571767D01*
X135726062Y-66596184D01*
X135717216Y-66596500D01*
X134979455Y-66596500D01*
X134882812Y-66615724D01*
X134786167Y-66634947D01*
X134786161Y-66634949D01*
X134732834Y-66657037D01*
X134732834Y-66657038D01*
X134689918Y-66674814D01*
X134604084Y-66710368D01*
X134604083Y-66710368D01*
X134481045Y-66792579D01*
X134481046Y-66792580D01*
X134440218Y-66819859D01*
X134440215Y-66819862D01*
X132372863Y-68887215D01*
X132372860Y-68887219D01*
X132263372Y-69051079D01*
X132263367Y-69051089D01*
X132187949Y-69233163D01*
X132187947Y-69233171D01*
X132149500Y-69426455D01*
X128650500Y-69426455D01*
X128650500Y-61973543D01*
X135509499Y-61973543D01*
X135547947Y-62166829D01*
X135547950Y-62166839D01*
X135623364Y-62348907D01*
X135623371Y-62348920D01*
X135732860Y-62512781D01*
X135732863Y-62512785D01*
X135872214Y-62652136D01*
X135872218Y-62652139D01*
X136036079Y-62761628D01*
X136036092Y-62761635D01*
X136218160Y-62837049D01*
X136218165Y-62837051D01*
X136218169Y-62837051D01*
X136218170Y-62837052D01*
X136411456Y-62875500D01*
X136411459Y-62875500D01*
X136608543Y-62875500D01*
X136738582Y-62849632D01*
X136801835Y-62837051D01*
X136983914Y-62761632D01*
X137147782Y-62652139D01*
X137287139Y-62512782D01*
X137396632Y-62348914D01*
X137472051Y-62166835D01*
X137510500Y-61973541D01*
X137510500Y-61076459D01*
X137510500Y-61076456D01*
X137472052Y-60883170D01*
X137472051Y-60883169D01*
X137472051Y-60883165D01*
X137472049Y-60883160D01*
X137396635Y-60701092D01*
X137396628Y-60701079D01*
X137287139Y-60537218D01*
X137287136Y-60537214D01*
X137147785Y-60397863D01*
X137147781Y-60397860D01*
X136983920Y-60288371D01*
X136983907Y-60288364D01*
X136801839Y-60212950D01*
X136801829Y-60212947D01*
X136608543Y-60174500D01*
X136608541Y-60174500D01*
X136411459Y-60174500D01*
X136411457Y-60174500D01*
X136218170Y-60212947D01*
X136218160Y-60212950D01*
X136036092Y-60288364D01*
X136036079Y-60288371D01*
X135872218Y-60397860D01*
X135872214Y-60397863D01*
X135732863Y-60537214D01*
X135732860Y-60537218D01*
X135623371Y-60701079D01*
X135623364Y-60701092D01*
X135547950Y-60883160D01*
X135547947Y-60883170D01*
X135509500Y-61076456D01*
X135509500Y-61076459D01*
X135509500Y-61973541D01*
X135509500Y-61973543D01*
X135509499Y-61973543D01*
X128650500Y-61973543D01*
X128650500Y-57149500D01*
X128670185Y-57082461D01*
X128722989Y-57036706D01*
X128774500Y-57025500D01*
X152672100Y-57025500D01*
X152739139Y-57045185D01*
G37*
%TD.AperFunction*%
%TD*%
M02*
